<svg width="37" height="37" viewBox="0 0 37 37" fill="none" xmlns="http://www.w3.org/2000/svg">
<path d="M33.6422 11.4561C33.5004 11.2512 33.311 11.0837 33.0903 10.968C32.8696 10.8523 32.6241 10.7918 32.3749 10.7917H11.305L9.52588 6.52126C9.29261 5.95889 8.8976 5.47846 8.39094 5.14087C7.88428 4.80328 7.28879 4.62373 6.67996 4.62501H3.08325V7.70834H6.67996L13.9936 25.2602C14.1108 25.541 14.3084 25.7809 14.5616 25.9496C14.8148 26.1184 15.1123 26.2084 15.4166 26.2083H27.7499C28.3928 26.2083 28.9678 25.809 29.1945 25.2093L33.8195 12.876C33.9069 12.6426 33.9364 12.3915 33.9055 12.1443C33.8746 11.897 33.7843 11.6608 33.6422 11.4561Z" fill="black"/>
<path d="M16.1875 32.375C17.4647 32.375 18.5 31.3397 18.5 30.0625C18.5 28.7853 17.4647 27.75 16.1875 27.75C14.9103 27.75 13.875 28.7853 13.875 30.0625C13.875 31.3397 14.9103 32.375 16.1875 32.375Z" fill="black"/>
<path d="M26.9792 32.375C28.2564 32.375 29.2917 31.3397 29.2917 30.0625C29.2917 28.7853 28.2564 27.75 26.9792 27.75C25.7021 27.75 24.6667 28.7853 24.6667 30.0625C24.6667 31.3397 25.7021 32.375 26.9792 32.375Z" fill="black"/>
</svg>
