<svg width="23" height="26" viewBox="0 0 23 26" fill="none" xmlns="http://www.w3.org/2000/svg">
<path d="M17.803 3.13739V1.22967C17.803 0.728285 17.3872 0.3125 16.8858 0.3125C16.3844 0.3125 15.9686 0.728285 15.9686 1.22967V3.06402H8.01982V1.22967C8.01982 0.728285 7.60403 0.3125 7.10264 0.3125C6.60125 0.3125 6.18547 0.728285 6.18547 1.22967V3.13739C2.88365 3.44312 1.28165 5.41198 1.03707 8.33471C1.01261 8.68935 1.30611 8.98284 1.64852 8.98284H22.3399C22.6945 8.98284 22.988 8.67712 22.9514 8.33471C22.7068 5.41198 21.1048 3.44312 17.803 3.13739Z" fill="#2E2E2E"/>
<path d="M21.7771 10.8169H2.21069C1.5381 10.8169 0.987793 11.3671 0.987793 12.0397V19.5728C0.987793 23.2415 2.82214 25.6873 7.10228 25.6873H16.8855C21.1656 25.6873 22.9999 23.2415 22.9999 19.5728V12.0397C22.9999 11.3671 22.4496 10.8169 21.7771 10.8169ZM8.58199 21.0525C8.52084 21.1014 8.4597 21.1626 8.39855 21.1992C8.32518 21.2482 8.2518 21.2848 8.17843 21.3093C8.10506 21.346 8.03168 21.3705 7.95831 21.3827C7.87271 21.3949 7.79933 21.4071 7.71373 21.4071C7.55475 21.4071 7.39578 21.3705 7.24903 21.3093C7.09005 21.2482 6.96776 21.1626 6.84547 21.0525C6.62535 20.8201 6.49083 20.5022 6.49083 20.1842C6.49083 19.8663 6.62535 19.5483 6.84547 19.316C6.96776 19.2059 7.09005 19.1203 7.24903 19.0592C7.46915 18.9613 7.71373 18.9369 7.95831 18.9858C8.03168 18.998 8.10506 19.0225 8.17843 19.0592C8.2518 19.0836 8.32518 19.1203 8.39855 19.1692C8.4597 19.2182 8.52084 19.2671 8.58199 19.316C8.80211 19.5483 8.93663 19.8663 8.93663 20.1842C8.93663 20.5022 8.80211 20.8201 8.58199 21.0525ZM8.58199 16.7724C8.34964 16.9925 8.03168 17.127 7.71373 17.127C7.39578 17.127 7.07782 16.9925 6.84547 16.7724C6.62535 16.54 6.49083 16.2221 6.49083 15.9041C6.49083 15.5861 6.62535 15.2682 6.84547 15.0358C7.18788 14.6934 7.72596 14.5834 8.17843 14.779C8.33741 14.8402 8.47193 14.9258 8.58199 15.0358C8.80211 15.2682 8.93663 15.5861 8.93663 15.9041C8.93663 16.2221 8.80211 16.54 8.58199 16.7724ZM12.8621 21.0525C12.6298 21.2726 12.3118 21.4071 11.9939 21.4071C11.6759 21.4071 11.358 21.2726 11.1256 21.0525C10.9055 20.8201 10.771 20.5022 10.771 20.1842C10.771 19.8663 10.9055 19.5483 11.1256 19.316C11.5781 18.8635 12.4097 18.8635 12.8621 19.316C13.0822 19.5483 13.2168 19.8663 13.2168 20.1842C13.2168 20.5022 13.0822 20.8201 12.8621 21.0525ZM12.8621 16.7724C12.801 16.8213 12.7398 16.8702 12.6787 16.9191C12.6053 16.968 12.5319 17.0047 12.4586 17.0292C12.3852 17.0659 12.3118 17.0903 12.2385 17.1025C12.1528 17.1148 12.0795 17.127 11.9939 17.127C11.6759 17.127 11.358 16.9925 11.1256 16.7724C10.9055 16.54 10.771 16.2221 10.771 15.9041C10.771 15.5861 10.9055 15.2682 11.1256 15.0358C11.2357 14.9258 11.3702 14.8402 11.5292 14.779C11.9816 14.5834 12.5197 14.6934 12.8621 15.0358C13.0822 15.2682 13.2168 15.5861 13.2168 15.9041C13.2168 16.2221 13.0822 16.54 12.8621 16.7724ZM17.1423 21.0525C16.9099 21.2726 16.592 21.4071 16.274 21.4071C15.9561 21.4071 15.6381 21.2726 15.4058 21.0525C15.1856 20.8201 15.0511 20.5022 15.0511 20.1842C15.0511 19.8663 15.1856 19.5483 15.4058 19.316C15.8582 18.8635 16.6898 18.8635 17.1423 19.316C17.3624 19.5483 17.4969 19.8663 17.4969 20.1842C17.4969 20.5022 17.3624 20.8201 17.1423 21.0525ZM17.1423 16.7724C17.0811 16.8213 17.02 16.8702 16.9588 16.9191C16.8855 16.968 16.8121 17.0047 16.7387 17.0292C16.6653 17.0659 16.592 17.0903 16.5186 17.1025C16.433 17.1148 16.3474 17.127 16.274 17.127C15.9561 17.127 15.6381 16.9925 15.4058 16.7724C15.1856 16.54 15.0511 16.2221 15.0511 15.9041C15.0511 15.5861 15.1856 15.2682 15.4058 15.0358C15.528 14.9258 15.6503 14.8402 15.8093 14.779C16.0294 14.6812 16.274 14.6567 16.5186 14.7057C16.592 14.7179 16.6653 14.7423 16.7387 14.779C16.8121 14.8035 16.8855 14.8402 16.9588 14.8891L17.1423 15.0358C17.3624 15.2682 17.4969 15.5861 17.4969 15.9041C17.4969 16.2221 17.3624 16.54 17.1423 16.7724Z" fill="#2E2E2E"/>
</svg>
