<svg width="25" height="30" viewBox="0 0 25 30" fill="none" xmlns="http://www.w3.org/2000/svg">
<path d="M19.0977 3.79879V1.63212C19.0977 1.06268 18.6255 0.590454 18.056 0.590454C17.4866 0.590454 17.0144 1.06268 17.0144 1.63212V3.71545H7.98662V1.63212C7.98662 1.06268 7.5144 0.590454 6.94495 0.590454C6.37551 0.590454 5.90329 1.06268 5.90329 1.63212V3.79879C2.15329 4.14601 0.333842 6.38212 0.0560637 9.70156C0.028286 10.1043 0.361619 10.4377 0.750508 10.4377H24.2505C24.6532 10.4377 24.9866 10.0905 24.9449 9.70156C24.6671 6.38212 22.8477 4.14601 19.0977 3.79879Z" fill="#E2E2E2"/>
<path d="M23.6111 12.5208H1.38889C0.625 12.5208 0 13.1457 0 13.9096V22.4651C0 26.6318 2.08333 29.4096 6.94444 29.4096H18.0556C22.9167 29.4096 25 26.6318 25 22.4651V13.9096C25 13.1457 24.375 12.5208 23.6111 12.5208ZM8.625 24.1457C8.55556 24.2013 8.48611 24.2707 8.41667 24.3124C8.33333 24.3679 8.25 24.4096 8.16667 24.4374C8.08333 24.479 8 24.5068 7.91667 24.5207C7.81944 24.5346 7.73611 24.5485 7.63889 24.5485C7.45833 24.5485 7.27778 24.5068 7.11111 24.4374C6.93056 24.3679 6.79167 24.2707 6.65278 24.1457C6.40278 23.8818 6.25 23.5207 6.25 23.1596C6.25 22.7985 6.40278 22.4374 6.65278 22.1735C6.79167 22.0485 6.93056 21.9513 7.11111 21.8818C7.36111 21.7707 7.63889 21.7429 7.91667 21.7985C8 21.8124 8.08333 21.8401 8.16667 21.8818C8.25 21.9096 8.33333 21.9513 8.41667 22.0068C8.48611 22.0624 8.55556 22.1179 8.625 22.1735C8.875 22.4374 9.02778 22.7985 9.02778 23.1596C9.02778 23.5207 8.875 23.8818 8.625 24.1457ZM8.625 19.2846C8.36111 19.5346 8 19.6874 7.63889 19.6874C7.27778 19.6874 6.91667 19.5346 6.65278 19.2846C6.40278 19.0207 6.25 18.6596 6.25 18.2985C6.25 17.9374 6.40278 17.5763 6.65278 17.3124C7.04167 16.9235 7.65278 16.7985 8.16667 17.0207C8.34722 17.0901 8.5 17.1874 8.625 17.3124C8.875 17.5763 9.02778 17.9374 9.02778 18.2985C9.02778 18.6596 8.875 19.0207 8.625 19.2846ZM13.4861 24.1457C13.2222 24.3957 12.8611 24.5485 12.5 24.5485C12.1389 24.5485 11.7778 24.3957 11.5139 24.1457C11.2639 23.8818 11.1111 23.5207 11.1111 23.1596C11.1111 22.7985 11.2639 22.4374 11.5139 22.1735C12.0278 21.6596 12.9722 21.6596 13.4861 22.1735C13.7361 22.4374 13.8889 22.7985 13.8889 23.1596C13.8889 23.5207 13.7361 23.8818 13.4861 24.1457ZM13.4861 19.2846C13.4167 19.3401 13.3472 19.3957 13.2778 19.4513C13.1944 19.5068 13.1111 19.5485 13.0278 19.5763C12.9444 19.6179 12.8611 19.6457 12.7778 19.6596C12.6806 19.6735 12.5972 19.6874 12.5 19.6874C12.1389 19.6874 11.7778 19.5346 11.5139 19.2846C11.2639 19.0207 11.1111 18.6596 11.1111 18.2985C11.1111 17.9374 11.2639 17.5763 11.5139 17.3124C11.6389 17.1874 11.7917 17.0901 11.9722 17.0207C12.4861 16.7985 13.0972 16.9235 13.4861 17.3124C13.7361 17.5763 13.8889 17.9374 13.8889 18.2985C13.8889 18.6596 13.7361 19.0207 13.4861 19.2846ZM18.3472 24.1457C18.0833 24.3957 17.7222 24.5485 17.3611 24.5485C17 24.5485 16.6389 24.3957 16.375 24.1457C16.125 23.8818 15.9722 23.5207 15.9722 23.1596C15.9722 22.7985 16.125 22.4374 16.375 22.1735C16.8889 21.6596 17.8333 21.6596 18.3472 22.1735C18.5972 22.4374 18.75 22.7985 18.75 23.1596C18.75 23.5207 18.5972 23.8818 18.3472 24.1457ZM18.3472 19.2846C18.2778 19.3401 18.2083 19.3957 18.1389 19.4513C18.0556 19.5068 17.9722 19.5485 17.8889 19.5763C17.8056 19.6179 17.7222 19.6457 17.6389 19.6596C17.5417 19.6735 17.4444 19.6874 17.3611 19.6874C17 19.6874 16.6389 19.5346 16.375 19.2846C16.125 19.0207 15.9722 18.6596 15.9722 18.2985C15.9722 17.9374 16.125 17.5763 16.375 17.3124C16.5139 17.1874 16.6528 17.0901 16.8333 17.0207C17.0833 16.9096 17.3611 16.8818 17.6389 16.9374C17.7222 16.9513 17.8056 16.979 17.8889 17.0207C17.9722 17.0485 18.0556 17.0901 18.1389 17.1457L18.3472 17.3124C18.5972 17.5763 18.75 17.9374 18.75 18.2985C18.75 18.6596 18.5972 19.0207 18.3472 19.2846Z" fill="#E2E2E2"/>
</svg>
