<svg width="29" height="29" viewBox="0 0 29 29" fill="none" xmlns="http://www.w3.org/2000/svg">
<path fill-rule="evenodd" clip-rule="evenodd" d="M22.9228 21.3644C23.3085 21.8052 23.992 21.8236 24.3581 21.3664C25.3729 20.0989 26.1211 18.6291 26.5466 17.0447C27.027 15.2558 27.0782 13.3871 26.7067 11.5885C26.5882 11.0149 25.9709 10.7208 25.4271 10.9384L18.1254 13.859C17.4852 14.1151 17.2901 14.9271 17.7442 15.446L22.9228 21.3644ZM25.1625 7.72815C25.4723 8.22519 25.2281 8.8639 24.6843 9.08141L17.5035 11.9537C16.8466 12.2165 16.1321 11.7327 16.1321 11.0253V3.29133C16.1321 2.70568 16.6344 2.2417 17.2109 2.34471C18.8936 2.64536 20.4995 3.30901 21.913 4.29917C23.2228 5.21665 24.3255 6.38518 25.1625 7.72815Z" fill="#ECECEC"/>
<path fill-rule="evenodd" clip-rule="evenodd" d="M14.1321 1.96466C14.1321 1.38237 13.6355 0.919817 13.0605 1.01167C11.6248 1.24103 10.2324 1.70799 8.94167 2.39787C7.03708 3.41589 5.41296 4.88791 4.21316 6.68354C3.01336 8.47917 2.27491 10.543 2.06324 12.6922C1.85156 14.8414 2.17319 17.0096 2.99962 19.0048C3.82606 21 5.1318 22.7606 6.80118 24.1306C8.47056 25.5006 10.4521 26.4378 12.5701 26.8591C14.6882 27.2804 16.8775 27.1729 18.9441 26.546C20.0638 26.2063 21.1287 25.7199 22.1123 25.1026C22.6056 24.7931 22.6747 24.118 22.2912 23.6798L14.4166 14.6803C14.2332 14.4706 14.1321 14.2015 14.1321 13.923V1.96466Z" fill="#ECECEC"/>
</svg>
