<svg width="40" height="27" viewBox="0 0 40 27" fill="none" xmlns="http://www.w3.org/2000/svg">
<path d="M20.4619 2.00027e-05C17.479 -0.00500747 13.7419 0.937644 10.0551 2.85646C6.37412 4.77528 3.45651 7.28902 1.74381 9.7441C0.0302836 12.1908 -0.433082 14.4699 0.409858 16.0955C1.25364 17.7126 3.38696 18.6427 6.37747 18.6427C9.36798 18.6511 13.1051 17.7043 16.7835 15.7938C20.4703 13.875 23.3862 11.3529 25.0956 8.90619C26.8133 6.45948 27.2658 4.18036 26.4279 2.55481C25.5816 0.937644 23.4533 2.00027e-05 20.4619 2.00027e-05ZM28.1623 5.8897C27.8691 7.17171 27.2323 8.48723 26.3357 9.76924C24.442 12.4757 21.3501 15.1151 17.479 17.1261C13.6078 19.1455 9.67801 20.1593 6.37663 20.1593C4.81811 20.1593 3.37355 19.9247 2.15607 19.4304L3.04342 21.1397C3.88803 22.7653 6.01549 23.6953 9.00767 23.6953C11.999 23.6953 15.7361 22.7569 19.4145 20.8381C23.1014 18.9276 26.0173 16.4055 27.7266 13.9504C29.436 11.5037 29.9052 9.2246 29.0589 7.60742L28.1623 5.8897ZM30.5755 7.2974C31.514 9.53462 30.7599 12.2578 28.9667 14.8135C27.3831 17.0842 24.9615 19.2879 21.9618 21.1313C22.8919 21.2319 23.8639 21.2822 24.8526 21.2822C29.0003 21.2822 32.7541 20.394 35.4019 19.0114C38.0581 17.6289 39.5161 15.819 39.5161 13.9923C39.5161 12.1657 38.0581 10.3558 35.4019 8.97322C34.0529 8.26938 32.4106 7.69122 30.5755 7.2974ZM39.5161 17.7545C38.6614 18.7517 37.4883 19.6315 36.1058 20.3521C33.1731 21.8771 29.2181 22.7904 24.8526 22.7904C23.0762 22.7904 21.3669 22.6396 19.7665 22.3547C17.8225 23.335 15.8702 24.064 13.9933 24.5416C14.0938 24.6003 14.1944 24.6506 14.3033 24.7092C16.9511 26.0918 20.7049 26.98 24.8526 26.98C29.0003 26.98 32.7541 26.0918 35.4019 24.7092C38.0581 23.3267 39.5161 21.5168 39.5161 19.6901V17.7545Z" fill="url(#paint0_linear_309_390)"/>
<defs>
<linearGradient id="paint0_linear_309_390" x1="-1.72883" y1="13.49" x2="40.7509" y2="13.49" gradientUnits="userSpaceOnUse">
<stop stop-color="#9AEB85"/>
<stop offset="1" stop-color="#E1F375"/>
</linearGradient>
</defs>
</svg>
