<svg width="27" height="18" viewBox="0 0 27 18" fill="none" xmlns="http://www.w3.org/2000/svg">
<path d="M13.981 1.3345e-05C11.9428 -0.00334079 9.38937 0.625561 6.87029 1.90572C4.35522 3.18589 2.36172 4.86296 1.19149 6.50089C0.0206918 8.13324 -0.29591 9.65378 0.280042 10.7383C0.856567 11.8172 2.3142 12.4377 4.35751 12.4377C6.40083 12.4433 8.95425 11.8116 11.4676 10.537C13.9867 9.25688 15.979 7.57422 17.147 5.94187C18.3206 4.30952 18.6298 2.78898 18.0573 1.70447C17.479 0.62556 16.0248 1.3345e-05 13.981 1.3345e-05ZM19.2424 3.92939C19.042 4.78469 18.6069 5.66236 17.9943 6.51766C16.7004 8.32331 14.5878 10.0842 11.9428 11.4259C9.29776 12.7731 6.61266 13.4496 4.35694 13.4496C3.29206 13.4496 2.30504 13.293 1.47317 12.9632L2.07946 14.1036C2.65656 15.1881 4.11018 15.8086 6.15464 15.8086C8.19853 15.8086 10.752 15.1825 13.2653 13.9024C15.7844 12.6278 17.7767 10.9451 18.9447 9.30719C20.1126 7.67484 20.4332 6.1543 19.855 5.07538L19.2424 3.92939ZM20.8912 4.86855C21.5325 6.36114 21.0172 8.17796 19.792 9.88298C18.7099 11.3979 17.0554 12.8682 15.0058 14.098C15.6413 14.1651 16.3054 14.1986 16.9809 14.1986C19.8149 14.1986 22.3798 13.6061 24.1889 12.6837C26.0038 11.7613 27 10.5538 27 9.33514C27 8.11647 26.0038 6.90898 24.1889 5.98659C23.2672 5.51701 22.1451 5.13129 20.8912 4.86855ZM27 11.8452C26.416 12.5104 25.6145 13.0974 24.6699 13.5781C22.666 14.5955 19.9638 15.2049 16.9809 15.2049C15.7672 15.2049 14.5993 15.1043 13.5058 14.9142C12.1775 15.5682 10.8436 16.0546 9.56112 16.3732C9.62982 16.4124 9.69853 16.4459 9.77295 16.485C11.5821 17.4074 14.147 18 16.9809 18C19.8149 18 22.3798 17.4074 24.1889 16.485C26.0038 15.5627 27 14.3552 27 13.1365V11.8452Z" fill="url(#paint0_linear_348_277)"/>
<defs>
<linearGradient id="paint0_linear_348_277" x1="-1.18125" y1="9" x2="27.8438" y2="9" gradientUnits="userSpaceOnUse">
<stop stop-color="#9AEB85"/>
<stop offset="1" stop-color="#E1F375"/>
</linearGradient>
</defs>
</svg>
