<svg width="22" height="22" viewBox="0 0 22 22" fill="none" xmlns="http://www.w3.org/2000/svg">
<path fill-rule="evenodd" clip-rule="evenodd" d="M0.583252 3.70837C0.583252 2.87957 0.912492 2.08472 1.49854 1.49867C2.08459 0.912614 2.87945 0.583374 3.70825 0.583374H18.2916C19.1204 0.583374 19.9152 0.912614 20.5013 1.49867C21.0873 2.08472 21.4166 2.87957 21.4166 3.70837V10.4792C21.4165 10.5671 21.4053 10.6546 21.3833 10.7396C21.4053 10.8247 21.4165 10.9122 21.4166 11V18.2917C21.4166 19.1205 21.0873 19.9154 20.5013 20.5014C19.9152 21.0875 19.1204 21.4167 18.2916 21.4167H3.70825C2.87945 21.4167 2.08459 21.0875 1.49854 20.5014C0.912492 19.9154 0.583252 19.1205 0.583252 18.2917V15.1667C0.583336 15.0788 0.594536 14.9913 0.616585 14.9063C0.594558 14.8212 0.583358 14.7337 0.583252 14.6459V3.70837ZM3.702 13.948C3.3395 13.9542 2.99367 13.9709 2.66659 13.9959V3.70837C2.66659 3.43211 2.77633 3.16716 2.97168 2.9718C3.16703 2.77645 3.43198 2.66671 3.70825 2.66671H18.2916C18.5679 2.66671 18.8328 2.77645 19.0282 2.9718C19.2235 3.16716 19.3333 3.43211 19.3333 3.70837V9.97504C14.8572 10.1198 11.6249 11.198 9.35408 12.7073C10.2145 13.0125 11.177 13.4469 12.1208 14.0157C13.578 14.8907 15.0593 16.1198 16.0562 17.748C16.1276 17.8646 16.1753 17.9942 16.1966 18.1294C16.2179 18.2645 16.2124 18.4025 16.1804 18.5355C16.1484 18.6685 16.0905 18.7939 16.01 18.9045C15.9295 19.0152 15.8281 19.1088 15.7114 19.1802C15.5947 19.2517 15.4651 19.2994 15.33 19.3207C15.1948 19.342 15.0568 19.3365 14.9238 19.3045C14.7908 19.2725 14.6654 19.2146 14.5548 19.1341C14.4442 19.0536 14.3505 18.9521 14.2791 18.8355C13.5124 17.5823 12.3228 16.5667 11.0478 15.8011C9.77492 15.0365 8.48013 14.5594 7.58221 14.3511C6.31733 14.0622 5.02218 13.9272 3.72492 13.949H3.702V13.948ZM5.76867 5.25837C6.23296 4.93126 6.78615 4.75389 7.35408 4.75004C7.78117 4.75004 8.39888 4.86983 8.9395 5.25837C9.53325 5.68546 9.95825 6.38962 9.95825 7.35421C9.95825 8.31879 9.53325 9.02192 8.9395 9.449C8.47534 9.77648 7.92213 9.95422 7.35408 9.95837C6.927 9.95837 6.30929 9.83858 5.76867 9.449C5.17492 9.02192 4.74992 8.31983 4.74992 7.35421C4.74992 6.38962 5.17492 5.6865 5.76867 5.25837Z" fill="#C3C3C3"/>
</svg>
