<svg width="310" height="244" viewBox="0 0 310 244" fill="none" xmlns="http://www.w3.org/2000/svg">
<g clip-path="url(#clip0_56_2)">
<path d="M152.561 55.438H151.279V20.3234C151.279 14.9333 149.137 9.76396 145.325 5.95259C141.513 2.14122 136.342 6.72104e-06 130.951 1.28985e-10H56.5393C53.8699 -9.50806e-06 51.2265 0.525661 48.7602 1.547C46.2939 2.56833 44.053 4.06533 42.1654 5.95252C40.2777 7.83972 38.7804 10.0801 37.7588 12.5459C36.7372 15.0116 36.2114 17.6544 36.2114 20.3233V212.965C36.2114 215.634 36.7372 218.276 37.7588 220.742C38.7803 223.208 40.2777 225.448 42.1653 227.335C44.0529 229.223 46.2938 230.72 48.7601 231.741C51.2264 232.762 53.8698 233.288 56.5392 233.288H130.951C133.62 233.288 136.264 232.762 138.73 231.741C141.196 230.72 143.437 229.223 145.325 227.336C147.212 225.448 148.71 223.208 149.731 220.742C150.753 218.276 151.279 215.634 151.279 212.965V80.4331H152.561V55.438Z" fill="#3F3D56"/>
<path d="M131.618 5.76807H121.905C122.351 6.86295 122.522 8.05084 122.401 9.22713C122.281 10.4034 121.872 11.532 121.213 12.5134C120.553 13.4948 119.662 14.299 118.618 14.855C117.574 15.4111 116.41 15.702 115.227 15.702H72.5978C71.4151 15.7019 70.2505 15.4111 69.2067 14.855C68.1629 14.299 67.272 13.4948 66.6123 12.5134C65.9525 11.532 65.5444 10.4034 65.4237 9.22713C65.303 8.05085 65.4735 6.86295 65.9202 5.76807H56.8481C52.8219 5.76806 48.9607 7.36708 46.1138 10.2134C43.2668 13.0596 41.6675 16.92 41.6674 20.9453V213.304C41.6674 215.297 42.0601 217.271 42.823 219.112C43.5859 220.953 44.7041 222.627 46.1137 224.036C47.5234 225.445 49.1969 226.563 51.0387 227.326C52.8805 228.089 54.8545 228.481 56.8481 228.481H131.618C135.644 228.481 139.505 226.882 142.352 224.036C145.199 221.19 146.799 217.329 146.799 213.304V20.9453C146.799 18.9522 146.406 16.9786 145.643 15.1372C144.88 13.2958 143.762 11.6227 142.352 10.2134C140.943 8.80404 139.269 7.68609 137.427 6.92336C135.585 6.16063 133.611 5.76807 131.618 5.76807ZM129.986 95.0045C129.983 96.0462 129.568 97.0443 128.831 97.7809C128.094 98.5175 127.096 98.9327 126.054 98.9357H107.049C106.007 98.9327 105.009 98.5175 104.272 97.7809C103.535 97.0443 103.12 96.0462 103.117 95.0045V94.0217C103.12 92.98 103.535 91.9818 104.272 91.2453C105.009 90.5087 106.007 90.0935 107.049 90.0905H126.054C127.096 90.0935 128.094 90.5087 128.831 91.2453C129.568 91.9818 129.983 92.98 129.986 94.0217V95.0045ZM132.116 77.6416C132.113 78.6833 131.698 79.6814 130.961 80.418C130.224 81.1546 129.226 81.5698 128.184 81.5728H60.0275C58.9856 81.5698 57.9873 81.1546 57.2505 80.418C56.5138 79.6814 56.0985 78.6833 56.0955 77.6416V76.6588C56.0985 75.6171 56.5138 74.6189 57.2505 73.8824C57.9873 73.1458 58.9856 72.7306 60.0275 72.7276H128.184C129.226 72.7306 130.224 73.1458 130.961 73.8824C131.698 74.6189 132.113 75.6171 132.116 76.6588V77.6416ZM132.116 60.2787C132.113 61.3204 131.698 62.3185 130.961 63.0551C130.224 63.7917 129.226 64.2069 128.184 64.2099H60.0275C58.9856 64.2069 57.9873 63.7917 57.2505 63.0551C56.5138 62.3185 56.0985 61.3204 56.0955 60.2787V59.2959C56.0985 58.2542 56.5138 57.2561 57.2505 56.5195C57.9873 55.7829 58.9856 55.3677 60.0275 55.3647H128.184C129.226 55.3677 130.224 55.7829 130.961 56.5195C131.698 57.2561 132.113 58.2542 132.116 59.2959V60.2787ZM132.116 42.9158C132.113 43.9575 131.698 44.9556 130.961 45.6922C130.224 46.4288 129.226 46.844 128.184 46.847H60.0275C58.9856 46.844 57.9873 46.4288 57.2505 45.6922C56.5138 44.9556 56.0985 43.9575 56.0955 42.9158V41.933C56.0985 40.8913 56.5138 39.8931 57.2505 39.1566C57.9873 38.42 58.9856 38.0048 60.0275 38.0018H128.184C129.226 38.0048 130.224 38.42 130.961 39.1566C131.698 39.8931 132.113 40.8913 132.116 41.933V42.9158Z" fill="white"/>
<path d="M61.5021 79.6073C62.7689 79.6073 63.7958 78.5806 63.7958 77.3141C63.7958 76.0476 62.7689 75.0209 61.5021 75.0209C60.2353 75.0209 59.2084 76.0476 59.2084 77.3141C59.2084 78.5806 60.2353 79.6073 61.5021 79.6073Z" fill="white"/>
<path d="M69.0386 79.6073C70.3054 79.6073 71.3323 78.5806 71.3323 77.3141C71.3323 76.0476 70.3054 75.0209 69.0386 75.0209C67.7718 75.0209 66.7449 76.0476 66.7449 77.3141C66.7449 78.5806 67.7718 79.6073 69.0386 79.6073Z" fill="white"/>
<path d="M76.5751 79.6073C77.8419 79.6073 78.8688 78.5806 78.8688 77.3141C78.8688 76.0476 77.8419 75.0209 76.5751 75.0209C75.3083 75.0209 74.2814 76.0476 74.2814 77.3141C74.2814 78.5806 75.3083 79.6073 76.5751 79.6073Z" fill="white"/>
<path d="M84.1116 79.6073C85.3784 79.6073 86.4053 78.5806 86.4053 77.3141C86.4053 76.0476 85.3784 75.0209 84.1116 75.0209C82.8448 75.0209 81.8179 76.0476 81.8179 77.3141C81.8179 78.5806 82.8448 79.6073 84.1116 79.6073Z" fill="white"/>
<path d="M108.687 96.9702C109.954 96.9702 110.981 95.9435 110.981 94.677C110.981 93.4105 109.954 92.3838 108.687 92.3838C107.42 92.3838 106.393 93.4105 106.393 94.677C106.393 95.9435 107.42 96.9702 108.687 96.9702Z" fill="white"/>
<path d="M116.224 96.9702C117.491 96.9702 118.517 95.9435 118.517 94.677C118.517 93.4105 117.491 92.3838 116.224 92.3838C114.957 92.3838 113.93 93.4105 113.93 94.677C113.93 95.9435 114.957 96.9702 116.224 96.9702Z" fill="white"/>
<path d="M123.76 96.9702C125.027 96.9702 126.054 95.9435 126.054 94.677C126.054 93.4105 125.027 92.3838 123.76 92.3838C122.493 92.3838 121.467 93.4105 121.467 94.677C121.467 95.9435 122.493 96.9702 123.76 96.9702Z" fill="white"/>
<path d="M132.643 124.39H54.9128C53.0866 124.39 51.3353 125.115 50.044 126.406C48.7527 127.697 48.0273 129.448 48.0273 131.274V169.137C48.0273 170.963 48.7527 172.714 50.044 174.005C51.3353 175.296 53.0866 176.021 54.9128 176.021H132.643C134.469 176.021 136.221 175.296 137.512 174.005C138.803 172.714 139.529 170.963 139.529 169.137V131.274C139.529 129.448 138.803 127.697 137.512 126.406C136.221 125.115 134.469 124.39 132.643 124.39ZM52.9896 129.086C53.1431 129.058 56.7829 128.439 59.7968 130.252C62.8106 132.065 63.9685 135.57 64.0162 135.718L64.1381 136.096L63.747 136.166C63.189 136.253 62.6249 136.294 62.0602 136.29C60.2688 136.324 58.5008 135.878 56.9396 134.999C53.9259 133.187 52.7681 129.681 52.7204 129.533L52.5985 129.155L52.9896 129.086ZM69.8629 164.24H55.999C54.9878 164.24 54.0181 163.838 53.3031 163.123C52.5881 162.408 52.1864 161.439 52.1864 160.428C52.1864 159.417 52.5881 158.447 53.3031 157.733C54.0181 157.018 54.9878 156.616 55.999 156.616H69.8629C70.874 156.616 71.8438 157.018 72.5588 157.733C73.2737 158.447 73.6754 159.417 73.6754 160.428C73.6754 161.439 73.2737 162.408 72.5588 163.123C71.8438 163.838 70.874 164.24 69.8629 164.24ZM132.943 163.547C132.94 164.648 132.501 165.704 131.722 166.483C130.942 167.262 129.886 167.702 128.784 167.705H118.386C117.284 167.702 116.228 167.262 115.449 166.483C114.67 165.704 114.23 164.648 114.227 163.547V157.309C114.23 156.207 114.67 155.152 115.449 154.372C116.228 153.593 117.284 153.154 118.386 153.151H128.784C129.886 153.154 130.942 153.593 131.722 154.372C132.501 155.152 132.94 156.207 132.943 157.309L132.943 163.547Z" fill="#BBF46E"/>
<path d="M121.739 162.261H117.558C117.26 162.261 116.973 162.38 116.762 162.591C116.551 162.802 116.433 163.088 116.433 163.387C116.433 163.685 116.551 163.971 116.762 164.182C116.973 164.393 117.26 164.512 117.558 164.512H121.739C122.037 164.512 122.324 164.393 122.535 164.182C122.746 163.971 122.864 163.685 122.864 163.387C122.864 163.088 122.746 162.802 122.535 162.591C122.324 162.38 122.037 162.261 121.739 162.261Z" fill="#3F3D56"/>
<path d="M129.457 162.261H125.276C124.978 162.261 124.692 162.38 124.481 162.591C124.269 162.802 124.151 163.088 124.151 163.387C124.151 163.685 124.269 163.971 124.481 164.182C124.692 164.393 124.978 164.512 125.276 164.512H129.457C129.756 164.512 130.042 164.393 130.253 164.182C130.464 163.971 130.583 163.685 130.583 163.387C130.583 163.088 130.464 162.802 130.253 162.591C130.042 162.38 129.756 162.261 129.457 162.261Z" fill="#3F3D56"/>
<path d="M121.738 159.084H117.558C117.259 159.084 116.973 159.203 116.762 159.414C116.551 159.625 116.432 159.911 116.432 160.21C116.432 160.508 116.551 160.794 116.762 161.006C116.973 161.217 117.259 161.335 117.558 161.335H121.738C122.037 161.335 122.323 161.217 122.534 161.006C122.745 160.794 122.864 160.508 122.864 160.21C122.864 159.911 122.745 159.625 122.534 159.414C122.323 159.203 122.037 159.084 121.738 159.084Z" fill="#3F3D56"/>
<path d="M129.456 159.084H125.276C124.977 159.084 124.691 159.203 124.48 159.414C124.269 159.625 124.15 159.911 124.15 160.21C124.15 160.508 124.269 160.794 124.48 161.006C124.691 161.217 124.977 161.335 125.276 161.335H129.456C129.755 161.335 130.041 161.217 130.252 161.006C130.463 160.794 130.582 160.508 130.582 160.21C130.582 159.911 130.463 159.625 130.252 159.414C130.041 159.203 129.755 159.084 129.456 159.084Z" fill="#3F3D56"/>
<path d="M121.738 155.972H117.558C117.259 155.972 116.973 156.091 116.762 156.302C116.551 156.513 116.432 156.799 116.432 157.097C116.432 157.396 116.551 157.682 116.762 157.893C116.973 158.104 117.259 158.223 117.558 158.223H121.738C122.037 158.223 122.323 158.104 122.534 157.893C122.745 157.682 122.864 157.396 122.864 157.097C122.864 156.799 122.745 156.513 122.534 156.302C122.323 156.091 122.037 155.972 121.738 155.972Z" fill="#3F3D56"/>
<path d="M129.456 155.972H125.276C124.977 155.972 124.691 156.091 124.48 156.302C124.269 156.513 124.15 156.799 124.15 157.097C124.15 157.396 124.269 157.682 124.48 157.893C124.691 158.104 124.977 158.223 125.276 158.223H129.456C129.755 158.223 130.041 158.104 130.252 157.893C130.463 157.682 130.582 157.396 130.582 157.097C130.582 156.799 130.463 156.513 130.252 156.302C130.041 156.091 129.755 155.972 129.456 155.972Z" fill="#3F3D56"/>
<path d="M186.48 138.653H176.342V148.789H186.48V138.653Z" fill="#E6E6E6"/>
<path d="M164.392 144.807H181.049V161.46H164.392V144.807ZM180.325 145.531H165.117V160.736H180.325V145.531Z" fill="#3F3D56"/>
<path d="M10.1387 55.0267H0V65.1632H10.1387V55.0267Z" fill="#E6E6E6"/>
<path d="M22.088 59.0089H5.43147V42.3561H22.088V59.0089ZM6.15567 58.2849H21.3638V43.0801H6.15567V58.2849Z" fill="#3F3D56"/>
<path d="M236.478 239.445H232.038L229.927 222.326H236.479L236.478 239.445Z" fill="#FFB8B8"/>
<path d="M228.868 238.177H237.429V243.566H223.477C223.477 242.136 224.045 240.766 225.056 239.755C226.067 238.744 227.438 238.177 228.868 238.177Z" fill="#2F2E41"/>
<path d="M258.566 239.445H254.126L252.015 222.326H258.567L258.566 239.445Z" fill="#FFB8B8"/>
<path d="M250.956 238.177H259.517V243.566H245.565C245.565 242.136 246.133 240.766 247.144 239.755C248.155 238.744 249.526 238.177 250.956 238.177Z" fill="#2F2E41"/>
<path d="M214.208 178.223C213.889 177.752 213.677 177.217 213.586 176.656C213.496 176.095 213.53 175.52 213.686 174.974C213.841 174.427 214.115 173.921 214.488 173.491C214.86 173.062 215.322 172.719 215.842 172.487L230.932 130.903L238.358 134.955L221.128 174.694C221.459 175.592 221.45 176.58 221.101 177.472C220.752 178.363 220.089 179.096 219.236 179.531C218.383 179.966 217.4 180.073 216.473 179.832C215.547 179.591 214.741 179.018 214.208 178.223Z" fill="#FFB8B8"/>
<path d="M256.298 186.036C255.805 185.754 255.38 185.366 255.052 184.901C254.725 184.436 254.503 183.905 254.404 183.346C254.304 182.786 254.328 182.211 254.474 181.662C254.621 181.112 254.886 180.602 255.251 180.166L250.576 136.177L259.026 136.563L260.969 179.832C261.661 180.493 262.086 181.386 262.164 182.34C262.241 183.294 261.966 184.243 261.39 185.008C260.815 185.773 259.978 186.3 259.04 186.49C258.101 186.679 257.126 186.518 256.298 186.036Z" fill="#FFB8B8"/>
<path d="M242.817 123.201C247.729 123.201 251.711 119.22 251.711 114.309C251.711 109.399 247.729 105.418 242.817 105.418C237.905 105.418 233.924 109.399 233.924 114.309C233.924 119.22 237.905 123.201 242.817 123.201Z" fill="#FFB8B8"/>
<path d="M256.241 176.032H229.429L229.461 175.823C229.51 175.512 234.24 144.531 230.751 134.396C230.401 133.4 230.432 132.309 230.838 131.335C231.243 130.36 231.995 129.57 232.949 129.116C237.936 126.768 247.508 123.877 255.587 130.893C256.776 131.943 257.705 133.254 258.299 134.724C258.894 136.194 259.138 137.782 259.013 139.363L256.241 176.032Z" fill="#CCCCCC"/>
<path d="M234.579 149.109L222.508 146.661L228.166 133.256C228.505 131.957 229.344 130.846 230.501 130.166C231.658 129.486 233.038 129.292 234.337 129.628C235.637 129.963 236.75 130.8 237.433 131.955C238.116 133.11 238.313 134.489 237.981 135.789L234.579 149.109Z" fill="#CCCCCC"/>
<path d="M250.039 153.656L249.313 137.024C248.763 133.897 250.553 130.942 253.306 130.459C256.06 129.978 258.749 132.146 259.302 135.295L262.03 150.836L250.039 153.656Z" fill="#CCCCCC"/>
<path d="M255.349 174.041C259.664 190.468 260.134 211.354 258.97 234.136L253.177 233.412L242.676 189.97L236.882 234.136L230.365 233.774C228.418 209.87 226.522 189.349 229.64 175.851L255.349 174.041Z" fill="#2F2E41"/>
<path d="M248.677 121.181C247.018 122.948 243.937 121.999 243.721 119.586C243.704 119.398 243.705 119.21 243.724 119.022C243.836 117.953 244.454 116.982 244.306 115.853C244.272 115.572 244.167 115.305 244.001 115.075C242.679 113.305 239.576 115.867 238.328 114.265C237.563 113.282 238.462 111.735 237.875 110.637C237.1 109.188 234.805 109.903 233.366 109.109C231.764 108.226 231.86 105.769 232.914 104.275C234.2 102.453 236.454 101.481 238.68 101.34C240.906 101.2 243.117 101.802 245.195 102.612C247.556 103.532 249.898 104.803 251.351 106.879C253.118 109.403 253.288 112.797 252.404 115.749C251.867 117.545 250.032 119.738 248.677 121.181Z" fill="#2F2E41"/>
<path d="M309.638 244H171.679C171.583 244 171.49 243.962 171.423 243.894C171.355 243.826 171.316 243.734 171.316 243.638C171.316 243.542 171.355 243.45 171.423 243.382C171.49 243.314 171.583 243.276 171.679 243.276H309.638C309.734 243.276 309.826 243.314 309.894 243.382C309.962 243.45 310 243.542 310 243.638C310 243.734 309.962 243.826 309.894 243.894C309.826 243.962 309.734 244 309.638 244Z" fill="#3F3D56"/>
</g>
<defs>
<clipPath id="clip0_56_2">
<rect width="310" height="244" fill="white"/>
</clipPath>
</defs>
</svg>
