<svg width="286" height="175" viewBox="0 0 286 175" fill="none" xmlns="http://www.w3.org/2000/svg">
<g clip-path="url(#clip0_56_86)">
<path d="M172.572 154.939L162.255 157.701L172.646 151.323C172.423 141.155 168.867 130.612 168.867 130.612C168.867 130.612 146.66 137.033 140.832 148.153C135.004 159.273 139.592 166.614 147.761 170.88C155.931 175.146 164.588 174.722 170.417 163.602C171.714 161.127 172.356 158.119 172.572 154.939Z" fill="#F2F2F2"/>
<path d="M160.283 157.112L159.996 157.66C156.624 164.014 152.942 168.423 148.995 170.82C148.938 170.856 148.88 170.888 148.823 170.924L148.662 170.657L148.51 170.398C152.835 167.842 156.464 162.932 159.407 157.391C159.503 157.213 159.601 157.032 159.694 156.849C160.919 154.492 162.022 152.038 163.002 149.605C163.08 149.417 163.156 149.226 163.232 149.034C164.51 145.817 165.576 142.661 166.429 139.882C166.491 139.686 166.549 139.489 166.606 139.294C168.032 134.585 168.823 131.048 168.993 130.262C169.015 130.166 169.026 130.113 169.029 130.101L169.325 130.162L169.33 130.161L169.629 130.224C169.626 130.236 169.591 130.415 169.516 130.742C169.244 131.969 168.471 135.28 167.196 139.516C167.138 139.706 167.08 139.904 167.018 140.1C166.328 142.356 165.502 144.849 164.539 147.414C164.297 148.059 164.053 148.691 163.804 149.312C163.73 149.505 163.654 149.696 163.576 149.884C162.517 152.514 161.419 154.923 160.283 157.112Z" fill="white"/>
<path d="M167.196 139.516C167.002 139.445 166.804 139.373 166.606 139.294C166.07 139.08 165.544 138.839 165.032 138.572C162.848 137.435 160.948 135.824 159.47 133.857C159.281 133.941 159.091 134.025 158.898 134.111C160.44 136.202 162.441 137.913 164.748 139.115C165.294 139.4 165.856 139.656 166.43 139.882C166.624 139.96 166.822 140.032 167.018 140.1C168.635 140.67 170.328 140.991 172.041 141.054C172.002 140.843 171.965 140.637 171.929 140.435C170.315 140.363 168.72 140.053 167.196 139.516Z" fill="white"/>
<path d="M163.804 149.312C163.611 149.224 163.42 149.132 163.233 149.034C163.174 149.007 163.114 148.976 163.057 148.946C160.692 147.711 158.662 145.924 157.139 143.736C155.616 141.549 154.645 139.027 154.309 136.384C154.117 136.487 153.924 136.59 153.733 136.698C154.113 139.393 155.132 141.959 156.704 144.184C158.276 146.408 160.356 148.227 162.773 149.489C162.849 149.528 162.925 149.568 163.002 149.605C163.194 149.702 163.385 149.794 163.576 149.884C166.557 151.251 169.868 151.733 173.116 151.271C173.113 151.066 173.109 150.86 173.104 150.653C169.939 151.119 166.707 150.652 163.804 149.312Z" fill="white"/>
<path d="M160.283 157.112C160.084 157.029 159.888 156.941 159.694 156.849C159.486 156.751 159.279 156.65 159.075 156.543C155.899 154.88 153.349 152.236 151.805 149.005C150.262 145.774 149.808 142.131 150.512 138.621C150.275 138.777 150.039 138.93 149.807 139.089C149.219 142.65 149.771 146.306 151.384 149.537C152.996 152.768 155.588 155.409 158.791 157.086C158.994 157.193 159.2 157.296 159.407 157.391C159.602 157.486 159.798 157.574 159.996 157.66C163.997 159.367 168.498 159.493 172.588 158.012C172.636 157.781 172.675 157.549 172.715 157.314C168.702 158.863 164.243 158.79 160.283 157.112Z" fill="white"/>
<path d="M37.0973 155.903L47.4137 158.665L37.0227 152.287C37.2462 142.119 40.8017 131.576 40.8017 131.576C40.8017 131.576 63.0085 137.998 68.8367 149.117C74.6649 160.237 70.0772 167.578 61.9076 171.845C53.7382 176.111 45.0805 175.686 39.2522 164.567C37.955 162.092 37.3131 159.084 37.0973 155.903Z" fill="#F2F2F2"/>
<path d="M49.3858 158.077L49.6731 158.625C53.0451 164.979 56.727 169.388 60.6738 171.785C60.7308 171.821 60.789 171.853 60.8459 171.889L61.0071 171.621L61.1587 171.362C56.8343 168.806 53.2049 163.896 50.2624 158.355C50.1658 158.177 50.0678 157.997 49.9752 157.814C48.7503 155.457 47.6471 153.002 46.6665 150.569C46.5889 150.382 46.5127 150.19 46.4364 149.998C45.1587 146.781 44.0933 143.625 43.2394 140.847C43.1782 140.651 43.1197 140.453 43.0626 140.258C41.6366 135.549 40.8456 132.012 40.6761 131.226C40.6537 131.131 40.6432 131.077 40.6402 131.065L40.3435 131.127L40.3394 131.125L40.04 131.188C40.043 131.201 40.0778 131.38 40.1525 131.707C40.4248 132.933 41.1979 136.245 42.4725 140.48C42.5309 140.671 42.5894 140.868 42.6506 141.064C43.3412 143.32 44.1665 145.813 45.1304 148.379C45.3715 149.024 45.6164 149.656 45.8652 150.276C45.9387 150.469 46.015 150.661 46.0925 150.848C47.1523 153.478 48.25 155.888 49.3858 158.077Z" fill="white"/>
<path d="M37.7399 141.4C37.7039 141.602 37.6665 141.808 37.6278 142.018C39.3408 141.956 41.0344 141.634 42.6506 141.064C42.847 140.997 43.0446 140.924 43.2394 140.847C43.8133 140.621 44.3747 140.364 44.9214 140.079C47.2279 138.878 49.2287 137.166 50.7713 135.075C50.5776 134.99 50.3881 134.905 50.1985 134.821C48.7214 136.788 46.8208 138.4 44.637 139.536C44.1249 139.804 43.5994 140.045 43.0625 140.258C42.865 140.337 42.6674 140.409 42.4724 140.48C40.9489 141.018 39.3542 141.327 37.7399 141.4Z" fill="white"/>
<path d="M36.5653 151.618C36.5595 151.825 36.5564 152.03 36.5533 152.236C39.8005 152.697 43.1122 152.216 46.0925 150.849C46.2843 150.759 46.4748 150.666 46.6665 150.57C46.744 150.532 46.8201 150.493 46.8962 150.453C49.3126 149.191 51.3929 147.373 52.965 145.148C54.537 142.924 55.5555 140.358 55.9361 137.662C55.7447 137.555 55.5521 137.452 55.3594 137.348C55.024 139.991 54.0533 142.514 52.5302 144.701C51.007 146.888 48.9765 148.676 46.6118 149.91C46.5547 149.94 46.4949 149.971 46.4364 149.998C46.2488 150.096 46.0584 150.189 45.8651 150.276C42.962 151.617 39.73 152.083 36.5653 151.618Z" fill="white"/>
<path d="M36.954 158.278C36.994 158.513 37.0326 158.745 37.0808 158.976C41.1709 160.457 45.6722 160.332 49.6731 158.625C49.8705 158.539 50.0665 158.45 50.2624 158.355C50.4692 158.261 50.6745 158.157 50.8784 158.051C54.0809 156.374 56.6726 153.732 58.2854 150.502C59.8981 147.271 60.4499 143.615 59.8622 140.053C59.6302 139.894 59.3941 139.741 59.1565 139.585C59.8608 143.095 59.4072 146.738 57.8636 149.969C56.32 153.2 53.7695 155.845 50.594 157.508C50.3901 157.614 50.1833 157.715 49.9752 157.814C49.7806 157.905 49.5847 157.994 49.3858 158.077C45.4259 159.755 40.9666 159.827 36.954 158.278Z" fill="white"/>
<path d="M85.4638 163.689L91.6054 165.334L85.4194 161.537C85.5524 155.484 87.6691 149.207 87.6691 149.207C87.6691 149.207 100.889 153.03 104.359 159.65C107.829 166.27 105.098 170.64 100.234 173.18C95.3705 175.719 90.2164 175.467 86.7467 168.847C85.9744 167.374 85.5922 165.583 85.4638 163.689Z" fill="#F2F2F2"/>
<path d="M92.7795 164.983L92.9505 165.31C94.9579 169.092 97.1498 171.717 99.4995 173.144C99.5334 173.166 99.568 173.185 99.6019 173.206L99.6979 173.047L99.7881 172.893C97.2137 171.371 95.0531 168.448 93.3013 165.149C93.2438 165.043 93.1854 164.936 93.1303 164.827C92.4011 163.424 91.7444 161.962 91.1605 160.514C91.1144 160.402 91.069 160.288 91.0236 160.174C90.2629 158.259 89.6287 156.38 89.1203 154.726C89.0839 154.609 89.049 154.492 89.015 154.376C88.1661 151.572 87.6952 149.466 87.5943 148.999C87.581 148.942 87.5747 148.91 87.5729 148.903L87.3963 148.939L87.3939 148.939L87.2156 148.976C87.2174 148.983 87.2382 149.09 87.2826 149.285C87.4447 150.015 87.905 151.986 88.6637 154.508C88.6985 154.621 88.7333 154.739 88.7698 154.856C89.1809 156.198 89.6723 157.682 90.2461 159.21C90.3896 159.594 90.5354 159.97 90.6835 160.339C90.7273 160.454 90.7727 160.569 90.8189 160.68C91.4497 162.246 92.1033 163.68 92.7795 164.983Z" fill="white"/>
<path d="M85.8464 155.055C85.8249 155.175 85.8026 155.298 85.7796 155.423C86.7994 155.386 87.8076 155.195 88.7698 154.855C88.8867 154.815 89.0044 154.772 89.1203 154.726C89.462 154.591 89.7962 154.439 90.1217 154.269C91.4948 153.554 92.6859 152.535 93.6042 151.29C93.4889 151.239 93.3761 151.189 93.2633 151.139C92.3839 152.31 91.2524 153.269 89.9523 153.946C89.6475 154.105 89.3346 154.248 89.015 154.376C88.8975 154.423 88.7798 154.466 88.6637 154.508C87.7567 154.828 86.8074 155.012 85.8464 155.055Z" fill="white"/>
<path d="M85.147 161.138C85.1436 161.261 85.1418 161.384 85.1399 161.506C87.0731 161.781 89.0446 161.494 90.8189 160.68C90.9331 160.627 91.0464 160.572 91.1606 160.514C91.2067 160.492 91.252 160.468 91.2973 160.445C92.7359 159.694 93.9744 158.611 94.9102 157.287C95.8461 155.963 96.4524 154.435 96.679 152.83C96.5651 152.766 96.4504 152.705 96.3357 152.643C96.136 154.216 95.5582 155.718 94.6514 157.02C93.7446 158.323 92.5358 159.387 91.128 160.122C91.094 160.139 91.0584 160.158 91.0236 160.174C90.9119 160.233 90.7986 160.288 90.6835 160.339C88.9552 161.138 87.0311 161.415 85.147 161.138Z" fill="white"/>
<path d="M85.3785 165.103C85.4023 165.243 85.4253 165.382 85.4539 165.519C87.8889 166.401 90.5686 166.326 92.9505 165.31C93.068 165.259 93.1847 165.206 93.3013 165.149C93.4244 165.093 93.5466 165.031 93.668 164.968C95.5745 163.97 97.1174 162.397 98.0776 160.474C99.0377 158.55 99.3662 156.374 99.0163 154.254C98.8782 154.159 98.7376 154.068 98.5962 153.975C99.0155 156.064 98.7454 158.233 97.8265 160.157C96.9076 162.08 95.3892 163.655 93.4987 164.645C93.3773 164.708 93.2542 164.768 93.1303 164.827C93.0145 164.881 92.8978 164.934 92.7795 164.983C90.422 165.982 87.7673 166.026 85.3785 165.103Z" fill="white"/>
<path d="M208.135 108.036L208.108 108.033C203.224 107.228 197.797 107.229 191.519 108.034H191.517C191.36 108.036 191.204 108.007 191.059 107.949C190.914 107.89 190.782 107.804 190.67 107.694C190.558 107.584 190.469 107.454 190.409 107.31C190.348 107.166 190.316 107.011 190.315 106.855V101.179C190.316 100.866 190.441 100.566 190.662 100.345C190.884 100.123 191.185 99.9989 191.499 99.9986C197.027 99.279 202.626 99.2794 208.154 99.9998H208.157C208.467 100.004 208.763 100.131 208.98 100.352C209.197 100.572 209.319 100.87 209.318 101.179V106.855C209.317 107.168 209.193 107.468 208.971 107.689C208.749 107.911 208.448 108.035 208.135 108.036Z" fill="white"/>
<path d="M208.135 108.036L208.108 108.033C203.224 107.228 197.797 107.229 191.519 108.034H191.517C191.36 108.036 191.204 108.007 191.059 107.949C190.914 107.89 190.782 107.804 190.67 107.694C190.558 107.584 190.469 107.454 190.409 107.31C190.348 107.166 190.316 107.011 190.315 106.855V101.179C190.316 100.866 190.441 100.566 190.662 100.345C190.884 100.123 191.185 99.9989 191.499 99.9986C197.027 99.279 202.626 99.2794 208.154 99.9998H208.157C208.467 100.004 208.763 100.131 208.98 100.352C209.197 100.572 209.319 100.87 209.318 101.179V106.855C209.317 107.168 209.193 107.468 208.971 107.689C208.749 107.911 208.448 108.035 208.135 108.036ZM199.605 99.7815C196.901 99.7766 194.2 99.9561 191.52 100.318C191.406 100.317 191.292 100.338 191.185 100.38C191.079 100.422 190.981 100.485 190.899 100.565C190.817 100.645 190.752 100.741 190.707 100.846C190.662 100.952 190.638 101.065 190.638 101.179V106.855C190.638 107.083 190.729 107.301 190.89 107.462C191.051 107.623 191.27 107.714 191.499 107.714C197.782 106.906 203.235 106.906 208.147 107.714C208.373 107.71 208.589 107.618 208.748 107.458C208.906 107.297 208.995 107.08 208.996 106.855V101.179C208.995 100.952 208.905 100.733 208.743 100.572C208.582 100.411 208.363 100.32 208.135 100.32C205.305 99.9658 202.457 99.786 199.605 99.7815Z" fill="#BBF46E"/>
<path d="M199.817 105.997C201.062 105.997 202.071 104.989 202.071 103.746C202.071 102.503 201.062 101.496 199.817 101.496C198.571 101.496 197.562 102.503 197.562 103.746C197.562 104.989 198.571 105.997 199.817 105.997Z" fill="#BBF46E"/>
<path d="M194.019 102.57H192.087C191.959 102.57 191.836 102.519 191.745 102.429C191.655 102.339 191.604 102.216 191.604 102.088V101.445C191.604 101.317 191.655 101.195 191.745 101.104C191.836 101.014 191.959 100.963 192.087 100.963H194.019C194.147 100.963 194.27 101.014 194.361 101.104C194.451 101.195 194.502 101.317 194.502 101.445V102.088C194.502 102.216 194.451 102.339 194.361 102.429C194.27 102.519 194.147 102.57 194.019 102.57Z" fill="#BBF46E"/>
<path d="M207.546 107.071H205.614C205.486 107.071 205.363 107.02 205.272 106.93C205.182 106.839 205.131 106.717 205.131 106.589V105.946C205.131 105.818 205.182 105.696 205.272 105.605C205.363 105.515 205.486 105.464 205.614 105.464H207.546C207.674 105.464 207.797 105.515 207.888 105.605C207.978 105.696 208.029 105.818 208.029 105.946V106.589C208.029 106.717 207.978 106.839 207.888 106.93C207.797 107.02 207.674 107.071 207.546 107.071Z" fill="#BBF46E"/>
<path d="M205.385 105.688L205.362 105.676C201.175 103.038 196.176 100.932 190.078 99.2375L190.076 99.2365C189.931 99.1774 189.799 99.0903 189.688 98.9801C189.576 98.8699 189.488 98.7388 189.428 98.5944C189.368 98.4501 189.337 98.2953 189.337 98.1389C189.337 97.9826 189.368 97.8278 189.429 97.6835L191.64 92.455C191.762 92.1667 191.994 91.9386 192.284 91.8207C192.575 91.7029 192.901 91.7049 193.19 91.8263C198.563 93.3095 203.721 95.4832 208.534 98.2928L208.536 98.2937C208.82 98.4183 209.043 98.6496 209.157 98.9374C209.272 99.2252 209.268 99.5464 209.146 99.8312L206.935 105.06C206.813 105.348 206.581 105.576 206.29 105.694C206 105.812 205.674 105.81 205.385 105.688Z" fill="white"/>
<path d="M205.385 105.688L205.362 105.676C201.175 103.038 196.176 100.932 190.078 99.2375L190.076 99.2365C189.931 99.1774 189.799 99.0903 189.688 98.9801C189.576 98.8699 189.488 98.7388 189.428 98.5944C189.368 98.4501 189.337 98.2953 189.337 98.1389C189.337 97.9826 189.368 97.8278 189.429 97.6835L191.64 92.455C191.762 92.1667 191.994 91.9386 192.284 91.8207C192.575 91.7029 192.901 91.7049 193.19 91.8263C198.563 93.3095 203.721 95.4832 208.534 98.2928L208.536 98.2937C208.82 98.4183 209.043 98.6496 209.157 98.9374C209.272 99.2252 209.268 99.5464 209.146 99.8312L206.935 105.06C206.813 105.348 206.581 105.576 206.29 105.694C206 105.812 205.674 105.81 205.385 105.688ZM200.743 94.7731C198.254 93.719 195.695 92.8358 193.085 92.1295C192.98 92.0833 192.867 92.0583 192.752 92.056C192.638 92.0536 192.524 92.074 192.417 92.1159C192.31 92.1577 192.213 92.2203 192.13 92.3C192.048 92.3796 191.982 92.4748 191.936 92.58L189.725 97.8085C189.637 98.0185 189.635 98.255 189.721 98.4661C189.807 98.6772 189.974 98.8456 190.184 98.9345C196.287 100.629 201.311 102.746 205.522 105.397C205.732 105.481 205.966 105.48 206.175 105.394C206.384 105.307 206.55 105.142 206.638 104.935L208.849 99.7062C208.938 99.4961 208.939 99.2596 208.854 99.0485C208.768 98.8374 208.601 98.669 208.391 98.5802C205.922 97.1556 203.368 95.8841 200.743 94.7731Z" fill="#BBF46E"/>
<path d="M199.393 100.758C200.638 100.758 201.647 99.7505 201.647 98.5077C201.647 97.2648 200.638 96.2573 199.393 96.2573C198.148 96.2573 197.138 97.2648 197.138 98.5077C197.138 99.7505 198.148 100.758 199.393 100.758Z" fill="#BBF46E"/>
<path d="M194.51 95.1742L192.73 94.4241C192.612 94.3742 192.518 94.2797 192.47 94.1613C192.422 94.0428 192.423 93.9101 192.473 93.7923L192.723 93.1999C192.773 93.0822 192.868 92.989 192.986 92.9409C193.105 92.8928 193.238 92.8936 193.356 92.9432L195.136 93.6933C195.254 93.7432 195.348 93.8377 195.396 93.9561C195.444 94.0746 195.443 94.2073 195.394 94.3251L195.143 94.9175C195.093 95.0352 194.998 95.1283 194.88 95.1765C194.761 95.2246 194.628 95.2238 194.51 95.1742Z" fill="#BBF46E"/>
<path d="M205.219 104.572L203.438 103.821C203.321 103.772 203.227 103.677 203.179 103.559C203.131 103.44 203.132 103.307 203.181 103.19L203.432 102.597C203.482 102.48 203.576 102.386 203.695 102.338C203.814 102.29 203.947 102.291 204.065 102.341L205.845 103.091C205.963 103.14 206.056 103.235 206.105 103.353C206.153 103.472 206.152 103.605 206.102 103.722L205.852 104.315C205.802 104.433 205.707 104.526 205.588 104.574C205.47 104.622 205.337 104.621 205.219 104.572Z" fill="#BBF46E"/>
<path d="M209.822 102.581C210.227 102.338 210.575 102.008 210.839 101.616C211.103 101.224 211.278 100.779 211.351 100.312C211.425 99.845 211.394 99.3677 211.263 98.9137C211.131 98.4597 210.902 98.04 210.59 97.6842L216.294 87.7059L210.325 88.0908L205.824 97.5073C205.26 98.0694 204.922 98.8186 204.874 99.6128C204.826 100.407 205.072 101.191 205.565 101.817C206.058 102.442 206.763 102.865 207.548 103.006C208.332 103.147 209.141 102.996 209.822 102.581Z" fill="#FFB6B6"/>
<path d="M253.727 170.604H249.778L247.9 155.402L253.728 155.403L253.727 170.604Z" fill="#FFB6B6"/>
<path d="M254.734 174.425L242.002 174.424V174.264C242.002 172.952 242.524 171.694 243.454 170.766C244.383 169.839 245.644 169.317 246.958 169.317H246.958L254.734 169.318L254.734 174.425Z" fill="#2F2E41"/>
<path d="M226.673 170.604H222.724L220.846 155.402L226.674 155.403L226.673 170.604Z" fill="#FFB6B6"/>
<path d="M227.68 174.425L214.948 174.424V174.264C214.948 172.952 215.47 171.694 216.4 170.766C217.329 169.839 218.59 169.317 219.904 169.317H219.904L227.68 169.318L227.68 174.425Z" fill="#2F2E41"/>
<path d="M216.52 88.1346C216.52 88.1346 215.434 103.573 217.573 111.348C219.712 119.122 220.094 166.141 220.094 166.141H227.264L233.478 102.139L247.804 166.367L254.634 165.898L250.888 90.2141L216.52 88.1346Z" fill="#2F2E41"/>
<path d="M247.926 36.0941L242.444 32.1017L233.26 34.0979L230.774 39.9946L226.489 42.1147C225.081 42.8119 223.863 43.84 222.94 45.1107C222.018 46.3814 221.418 47.8567 221.192 49.4099L215.072 91.5961L250.888 90.2141L255.224 40.5316C255.27 40.0127 255.21 39.4899 255.049 38.9943C254.889 38.4986 254.63 38.0402 254.289 37.6461C253.947 37.2521 253.53 36.9303 253.062 36.7C252.594 36.4697 252.084 36.3354 251.563 36.3052L247.926 36.0941Z" fill="#E4E4E4"/>
<path d="M224.223 45.41L220.915 49.8612L206.507 93.7256L213.261 96.4248L224.075 75.9847L224.223 45.41Z" fill="#E4E4E4"/>
<path d="M236.066 29.5223C242.121 29.5223 247.029 24.6232 247.029 18.58C247.029 12.5367 242.121 7.6377 236.066 7.6377C230.012 7.6377 225.104 12.5367 225.104 18.58C225.104 24.6232 230.012 29.5223 236.066 29.5223Z" fill="#2F2E41"/>
<path d="M236.214 30.0173C240.632 30.0173 244.214 26.4423 244.214 22.0324C244.214 17.6225 240.632 14.0475 236.214 14.0475C231.796 14.0475 228.215 17.6225 228.215 22.0324C228.215 26.4423 231.796 30.0173 236.214 30.0173Z" fill="#FFB9B9"/>
<path d="M242.288 20.9973C237.194 19.1634 235.471 18.0368 229.844 20.9973L227.77 12.7167H244.362L242.288 20.9973Z" fill="#2F2E41"/>
<path d="M235.177 13.8996C238.614 13.8996 241.399 11.1191 241.399 7.68913C241.399 4.25917 238.614 1.47864 235.177 1.47864C231.741 1.47864 228.955 4.25917 228.955 7.68913C228.955 11.1191 231.741 13.8996 235.177 13.8996Z" fill="#2F2E41"/>
<path d="M227.77 6.21049C227.771 4.61555 228.387 3.08215 229.49 1.92851C230.594 0.774879 232.1 0.0896099 233.696 0.0149271C233.597 0.0102657 233.5 0 233.4 0C231.749 0 230.167 0.654318 229 1.81901C227.833 2.9837 227.178 4.56336 227.178 6.21048C227.178 7.85761 227.833 9.43727 229 10.602C230.167 11.7667 231.749 12.421 233.4 12.421C233.5 12.421 233.597 12.4107 233.696 12.406C232.1 12.3314 230.594 11.6461 229.49 10.4925C228.387 9.33883 227.771 7.80543 227.77 6.21049Z" fill="#2F2E41"/>
<path opacity="0.1" d="M250.6 47.9363L248.368 70.1457L240.486 85.6523L250.6 47.9363Z" fill="black"/>
<path d="M14.6543 116.291H12.7219V117.899H14.6543V116.291Z" fill="#F0F0F0"/>
<path d="M197.44 117.899H193.632V116.291H197.44V117.899ZM189.824 117.899H186.015V116.291H189.824V117.899ZM182.208 117.899H178.4V116.291H182.208V117.899ZM174.592 117.899H170.783V116.291H174.592V117.899ZM166.975 117.899H163.168V116.291H166.975V117.899ZM159.359 117.899H155.551V116.291H159.359L159.359 117.899ZM151.743 117.899H147.935V116.291H151.743V117.899ZM144.127 117.899H140.319V116.291H144.127V117.899ZM136.511 117.899H132.703V116.291H136.511V117.899ZM128.895 117.899H125.087V116.291H128.895L128.895 117.899ZM121.279 117.899H117.471V116.291H121.279L121.279 117.899ZM113.663 117.899H109.855V116.291H113.663L113.663 117.899ZM106.047 117.899H102.239V116.291H106.047L106.047 117.899ZM98.4308 117.899H94.623V116.291H98.4309L98.4308 117.899ZM90.8148 117.899H87.0069V116.291H90.8149L90.8148 117.899ZM83.1988 117.899H79.3907V116.291H83.1988L83.1988 117.899ZM75.5827 117.899H71.7747V116.291H75.5828L75.5827 117.899ZM67.9667 117.899H64.1587V116.291H67.9668L67.9667 117.899ZM60.3505 117.899H56.5427V116.291H60.3506L60.3505 117.899ZM52.7345 117.899H48.9266V116.291H52.7346L52.7345 117.899ZM45.1184 117.899H41.3106V116.291H45.1185L45.1184 117.899ZM37.5024 117.899H33.6944V116.291H37.5025L37.5024 117.899ZM29.8864 117.899H26.0784V116.291H29.8865L29.8864 117.899ZM22.2703 117.899H18.4623V116.291H22.2704L22.2703 117.899Z" fill="#F0F0F0"/>
<path d="M14.6543 75.4633H12.7219V77.0707H14.6543V75.4633Z" fill="#F0F0F0"/>
<path d="M197.44 77.0707H193.632V75.4633H197.44V77.0707ZM189.824 77.0707H186.015V75.4633H189.824V77.0707ZM182.208 77.0707H178.4V75.4633H182.208V77.0707ZM174.592 77.0707H170.783V75.4633H174.592V77.0707ZM166.975 77.0707H163.168V75.4633H166.975V77.0707ZM159.359 77.0707H155.551V75.4633H159.359L159.359 77.0707ZM151.743 77.0707H147.935V75.4633H151.743V77.0707ZM144.127 77.0707H140.319V75.4633H144.127V77.0707ZM136.511 77.0707H132.703V75.4633H136.511V77.0707ZM128.895 77.0707H125.087V75.4633H128.895L128.895 77.0707ZM121.279 77.0707H117.471V75.4633H121.279L121.279 77.0707ZM113.663 77.0707H109.855V75.4633H113.663L113.663 77.0707ZM106.047 77.0707H102.239V75.4633H106.047L106.047 77.0707ZM98.4308 77.0707H94.623V75.4633H98.4309L98.4308 77.0707ZM90.8148 77.0707H87.0069V75.4633H90.8149L90.8148 77.0707ZM83.1988 77.0707H79.3907V75.4633H83.1988L83.1988 77.0707ZM75.5827 77.0707H71.7747V75.4633H75.5828L75.5827 77.0707ZM67.9667 77.0707H64.1587V75.4633H67.9668L67.9667 77.0707ZM60.3505 77.0707H56.5427V75.4633H60.3506L60.3505 77.0707ZM52.7345 77.0707H48.9266V75.4633H52.7346L52.7345 77.0707ZM45.1184 77.0707H41.3106V75.4633H45.1185L45.1184 77.0707ZM37.5024 77.0707H33.6944V75.4633H37.5025L37.5024 77.0707ZM29.8864 77.0707H26.0784V75.4633H29.8865L29.8864 77.0707ZM22.2703 77.0707H18.4623V75.4633H22.2704L22.2703 77.0707Z" fill="#F0F0F0"/>
<path d="M14.6543 34.6353H12.7219V36.2427H14.6543V34.6353Z" fill="#F0F0F0"/>
<path d="M197.44 36.2427H193.632V34.6353H197.44V36.2427ZM189.824 36.2427H186.015V34.6353H189.824V36.2427ZM182.208 36.2427H178.4V34.6353H182.208V36.2427ZM174.592 36.2427H170.783V34.6353H174.592V36.2427ZM166.975 36.2427H163.168V34.6353H166.975V36.2427ZM159.359 36.2427H155.551V34.6353H159.359L159.359 36.2427ZM151.743 36.2427H147.935V34.6353H151.743V36.2427ZM144.127 36.2427H140.319V34.6353H144.127V36.2427ZM136.511 36.2427H132.703V34.6353H136.511V36.2427ZM128.895 36.2427H125.087V34.6353H128.895L128.895 36.2427ZM121.279 36.2427H117.471V34.6353H121.279L121.279 36.2427ZM113.663 36.2427H109.855V34.6353H113.663L113.663 36.2427ZM106.047 36.2427H102.239V34.6353H106.047L106.047 36.2427ZM98.4308 36.2427H94.623V34.6353H98.4309L98.4308 36.2427ZM90.8148 36.2427H87.0069V34.6353H90.8149L90.8148 36.2427ZM83.1988 36.2427H79.3907V34.6353H83.1988L83.1988 36.2427ZM75.5827 36.2427H71.7747V34.6353H75.5828L75.5827 36.2427ZM67.9667 36.2427H64.1587V34.6353H67.9668L67.9667 36.2427ZM60.3505 36.2427H56.5427V34.6353H60.3506L60.3505 36.2427ZM52.7345 36.2427H48.9266V34.6353H52.7346L52.7345 36.2427ZM45.1184 36.2427H41.3106V34.6353H45.1185L45.1184 36.2427ZM37.5024 36.2427H33.6944V34.6353H37.5025L37.5024 36.2427ZM29.8864 36.2427H26.0784V34.6353H29.8865L29.8864 36.2427ZM22.2703 36.2427H18.4623V34.6353H22.2704L22.2703 36.2427Z" fill="#F0F0F0"/>
<path d="M75.6869 116.773H59.9054V174.64H75.6869V116.773Z" fill="#3F3D56"/>
<path d="M78.5856 116.773H62.8041V174.64H78.5856V116.773Z" fill="#BBF46E"/>
<path d="M113.047 75.9454H97.2658V174.64H113.047V75.9454Z" fill="#3F3D56"/>
<path d="M115.946 75.9454H100.164V174.64H115.946V75.9454Z" fill="#BBF46E"/>
<path d="M150.408 35.1174H134.626V174.64H150.408V35.1174Z" fill="#3F3D56"/>
<path d="M153.306 35.1174H137.525V174.64H153.306V35.1174Z" fill="#BBF46E"/>
<path d="M12.8829 39.2967C15.0174 39.2967 16.7477 37.5695 16.7477 35.4389C16.7477 33.3084 15.0174 31.5812 12.8829 31.5812C10.7484 31.5812 9.01801 33.3084 9.01801 35.4389C9.01801 37.5695 10.7484 39.2967 12.8829 39.2967Z" fill="#F0F0F0"/>
<path d="M12.8829 80.1247C15.0174 80.1247 16.7477 78.3975 16.7477 76.2669C16.7477 74.1364 15.0174 72.4092 12.8829 72.4092C10.7484 72.4092 9.01801 74.1364 9.01801 76.2669C9.01801 78.3975 10.7484 80.1247 12.8829 80.1247Z" fill="#F0F0F0"/>
<path d="M12.8829 120.953C15.0174 120.953 16.7477 119.226 16.7477 117.095C16.7477 114.964 15.0174 113.237 12.8829 113.237C10.7484 113.237 9.01801 114.964 9.01801 117.095C9.01801 119.226 10.7484 120.953 12.8829 120.953Z" fill="#F0F0F0"/>
<path d="M286 174.28H0V175H286V174.28Z" fill="#3F3D56"/>
<path d="M241.308 100.963L241.282 100.961C236.397 100.156 230.971 100.156 224.692 100.962H224.69C224.533 100.964 224.378 100.935 224.233 100.876C224.087 100.818 223.955 100.731 223.843 100.622C223.732 100.512 223.643 100.381 223.582 100.237C223.521 100.093 223.49 99.9385 223.489 99.7822V94.107C223.489 93.7939 223.614 93.4937 223.836 93.2723C224.058 93.051 224.358 92.9264 224.672 92.9261C230.201 92.2065 235.799 92.2069 241.328 92.9273H241.33C241.64 92.9319 241.936 93.0583 242.153 93.2791C242.371 93.5 242.492 93.7974 242.491 94.107V99.7822C242.491 100.095 242.366 100.395 242.144 100.617C241.922 100.838 241.622 100.963 241.308 100.963Z" fill="white"/>
<path d="M241.308 100.963L241.282 100.961C236.397 100.156 230.971 100.156 224.692 100.962H224.69C224.533 100.964 224.378 100.935 224.233 100.876C224.087 100.818 223.955 100.731 223.843 100.622C223.732 100.512 223.643 100.381 223.582 100.237C223.521 100.093 223.49 99.9385 223.489 99.7822V94.107C223.489 93.7939 223.614 93.4937 223.836 93.2723C224.058 93.051 224.358 92.9264 224.672 92.9261C230.201 92.2065 235.799 92.2069 241.328 92.9273H241.33C241.64 92.9319 241.936 93.0583 242.153 93.2791C242.371 93.5 242.492 93.7974 242.491 94.107V99.7822C242.491 100.095 242.366 100.395 242.144 100.617C241.922 100.838 241.622 100.963 241.308 100.963ZM232.779 92.709C230.075 92.7041 227.373 92.8836 224.694 93.246C224.579 93.2442 224.465 93.265 224.359 93.3074C224.252 93.3498 224.155 93.4128 224.073 93.4929C223.991 93.5729 223.925 93.6684 223.88 93.7738C223.835 93.8792 223.812 93.9924 223.811 94.107V99.7822C223.811 100.01 223.902 100.228 224.063 100.39C224.225 100.551 224.444 100.641 224.672 100.642C230.955 99.8338 236.408 99.8336 241.321 100.641C241.547 100.638 241.762 100.546 241.921 100.385C242.08 100.224 242.169 100.008 242.169 99.7822V94.107C242.169 93.8791 242.078 93.6607 241.917 93.4995C241.755 93.3384 241.536 93.2478 241.308 93.2475C238.479 92.8933 235.63 92.7135 232.779 92.709Z" fill="#BBF46E"/>
<path d="M232.99 98.9239C234.235 98.9239 235.244 97.9164 235.244 96.6736C235.244 95.4307 234.235 94.4232 232.99 94.4232C231.745 94.4232 230.735 95.4307 230.735 96.6736C230.735 97.9164 231.745 98.9239 232.99 98.9239Z" fill="#BBF46E"/>
<path d="M227.193 95.4979H225.26C225.132 95.4978 225.009 95.4469 224.919 95.3565C224.828 95.2661 224.777 95.1435 224.777 95.0157V94.3727C224.777 94.2449 224.828 94.1223 224.919 94.0319C225.009 93.9415 225.132 93.8906 225.26 93.8905H227.193C227.321 93.8906 227.444 93.9415 227.534 94.0319C227.625 94.1223 227.676 94.2449 227.676 94.3727V95.0157C227.676 95.1435 227.625 95.2661 227.534 95.3565C227.444 95.4469 227.321 95.4978 227.193 95.4979Z" fill="#BBF46E"/>
<path d="M240.72 99.9986H238.787C238.659 99.9985 238.536 99.9476 238.446 99.8572C238.355 99.7668 238.304 99.6443 238.304 99.5164V98.8735C238.304 98.7456 238.355 98.623 238.446 98.5326C238.536 98.4422 238.659 98.3914 238.787 98.3912H240.72C240.848 98.3914 240.971 98.4422 241.061 98.5326C241.152 98.623 241.203 98.7456 241.203 98.8735V99.5164C241.203 99.6443 241.152 99.7668 241.061 99.8572C240.971 99.9476 240.848 99.9985 240.72 99.9986Z" fill="#BBF46E"/>
<path d="M237.687 93.5239C237.654 93.0524 237.725 92.5795 237.895 92.1383C238.065 91.6972 238.329 91.2985 238.67 90.9705C239.011 90.6425 239.42 90.393 239.868 90.2397C240.315 90.0865 240.791 90.0331 241.262 90.0833L246.17 79.692L249.282 84.7898L244.145 93.876C244.008 94.6599 243.587 95.3664 242.963 95.8616C242.339 96.3568 241.555 96.6063 240.759 96.5629C239.963 96.5195 239.211 96.1862 238.645 95.626C238.078 95.0659 237.738 94.318 237.687 93.5239Z" fill="#FFB6B6"/>
<path d="M251.03 39.1688L253.051 36.5379C253.051 36.5379 257.976 35.5367 258.812 42.2882L258.285 72.3034L247.494 89.2571L240.486 87.471L249.649 67.3311L251.03 39.1688Z" fill="#E4E4E4"/>
</g>
<defs>
<clipPath id="clip0_56_86">
<rect width="286" height="175" fill="white"/>
</clipPath>
</defs>
</svg>
