<svg width="236" height="194" viewBox="0 0 236 194" fill="none" xmlns="http://www.w3.org/2000/svg">
<g clip-path="url(#clip0_152_243)">
<path d="M207.87 144.66H205.183V152.66H207.87V144.66Z" fill="#F2F2F2"/>
<path d="M221.493 150.814H191.562C189.337 150.814 187.533 149.006 187.533 146.775C187.533 144.544 189.337 142.735 191.562 142.735H221.493C223.719 142.735 225.523 144.544 225.523 146.775C225.523 149.006 223.719 150.814 221.493 150.814Z" fill="#F2F2F2"/>
<path d="M223.796 150.814C225.597 150.814 227.058 149.35 227.058 147.544V108.69C227.058 106.884 225.597 105.42 223.796 105.42C221.994 105.42 220.534 106.884 220.534 108.69C210.627 116.29 214.654 131.417 220.534 147.544C220.534 149.35 221.994 150.814 223.796 150.814Z" fill="#F2F2F2"/>
<path d="M219.797 133.736C219.355 135.726 218.52 137.297 217.472 138.534C215.339 141.066 212.316 142.214 209.931 142.735C207.789 143.205 206.163 143.166 206.163 143.166L196.092 143.999L188.133 144.656L180.137 145.318C180.592 147.239 181.027 149.446 181.44 151.806C181.486 152.088 181.537 152.374 181.589 152.66H165.348L165.075 151.806L163.406 146.62L160.021 139.205C159.403 137.997 159.093 136.678 159.093 135.35C159.093 134.466 159.233 133.587 159.51 132.733C159.514 132.72 159.514 132.708 159.518 132.695C160.17 130.722 161.779 129.211 163.772 128.609L166.178 127.879C173 126.283 182.559 123.794 189.85 121.865C195.939 120.251 200.44 119.022 200.44 119.022L200.452 118.936L201.713 110.296L214.279 109.19L218.362 108.828C218.362 108.828 218.273 109.255 218.307 110.787C218.307 110.881 218.307 110.979 218.311 111.077C218.32 111.376 218.333 111.718 218.35 112.098C218.354 112.226 218.362 112.358 218.371 112.495C218.384 112.759 218.401 113.041 218.422 113.344C218.422 113.365 218.422 113.387 218.426 113.408C218.448 113.788 218.477 114.202 218.516 114.646C218.524 114.83 218.541 115.017 218.558 115.21C218.639 116.179 218.741 117.288 218.873 118.552C218.882 118.68 218.895 118.808 218.912 118.936C218.929 119.137 218.95 119.338 218.971 119.542C219.014 119.901 219.052 120.268 219.095 120.652C219.099 120.691 219.103 120.725 219.108 120.763C219.146 121.101 219.189 121.446 219.227 121.805C219.274 122.193 219.321 122.59 219.372 122.996C219.401 123.269 219.435 123.551 219.474 123.841C219.491 123.978 219.508 124.119 219.525 124.259C219.546 124.409 219.563 124.563 219.585 124.716C219.619 124.989 219.653 125.271 219.691 125.557C219.772 126.193 219.861 126.851 219.951 127.534C220.279 129.954 220.185 132.007 219.797 133.736Z" fill="#2F2E41"/>
<path d="M219.797 133.736L216.506 135.162L199.009 142.735L196.092 143.999L188.93 147.098C189.134 148.178 189.351 149.245 189.585 150.295C189.696 150.803 189.807 151.307 189.926 151.806C189.994 152.092 190.058 152.374 190.13 152.66H175.636L175.525 151.806L175.103 148.464C174.264 147.712 173.77 146.274 173.472 144.746C173.174 143.222 173.068 141.595 172.995 140.468C172.995 140.455 172.995 140.438 172.991 140.426C172.872 138.342 176.93 136.959 178.552 135.662L180.545 135C184.663 132.135 190.782 127.798 196.705 123.585C198.949 121.988 201.168 120.409 203.233 118.936C209.654 114.352 214.653 110.77 214.653 110.77L214.279 109.19L218.362 108.828C218.362 108.828 218.273 109.255 218.307 110.787C218.307 110.881 218.307 110.979 218.311 111.077C218.32 111.38 218.333 111.718 218.35 112.098C218.354 112.226 218.362 112.358 218.371 112.495C218.384 112.759 218.401 113.041 218.422 113.344C218.422 113.365 218.422 113.387 218.426 113.408C218.448 113.788 218.477 114.202 218.516 114.646C218.524 114.83 218.541 115.017 218.558 115.21C218.635 116.179 218.737 117.284 218.873 118.552C218.882 118.68 218.895 118.808 218.912 118.936C218.929 119.137 218.95 119.337 218.971 119.542C219.014 119.901 219.052 120.272 219.095 120.652C219.099 120.691 219.103 120.725 219.108 120.763C219.146 121.101 219.188 121.446 219.227 121.805C219.274 122.193 219.32 122.59 219.372 122.996C219.406 123.273 219.44 123.555 219.474 123.841C219.491 123.978 219.508 124.119 219.525 124.259C219.546 124.409 219.563 124.563 219.584 124.716C219.619 124.989 219.653 125.271 219.691 125.557C219.772 126.193 219.861 126.851 219.951 127.534C220.279 129.954 220.185 132.007 219.797 133.736Z" fill="#2F2E41"/>
<path d="M222.418 113.213C223.087 116.077 222.818 118.041 222.554 120.841C222.456 121.874 222.793 123.36 221.792 124.056C220.936 124.641 190.145 124.363 189.86 121.973C189.536 119.27 190.166 116.436 191.482 113.998C193.863 109.584 195.225 104.18 195.924 100.342C197.401 92.2786 194.071 87.8987 195.315 79.8563C195.527 78.486 195.57 77.1882 195.519 75.946C195.349 71.6302 194.02 67.9676 194.442 64.2494C194.616 62.7212 195.085 61.1844 196.051 59.5878C196.337 59.114 196.664 58.6359 197.043 58.1535C199.241 55.3446 199.816 53.2273 203.631 53.2315C204.214 53.2315 204.836 53.1931 205.466 53.1632C206.475 53.1077 207.506 53.0693 208.417 53.2315C210.606 53.62 210.12 54.9988 211.534 56.51L212.079 57.0564C213.442 58.1322 214.621 58.9731 215.814 60.2709C218.207 62.8748 221.047 65.8032 222.456 69.0561C223.41 71.2631 222.831 74.6355 222.806 77.0431C222.776 80.138 221.822 82.7377 221.026 85.6875C220.332 88.2488 220.148 90.9382 219.676 93.5549C219.067 96.9401 218.513 100.278 218.232 103.689C218.015 106.366 221.779 101.939 221.788 104.62C221.796 107.399 221.788 110.524 222.418 113.213Z" fill="#3F3D56"/>
<path d="M169.081 61.6554L178.563 63.3573L178.349 68.9232L168.388 66.7663C168.116 66.9189 167.819 67.0351 167.499 67.1051C165.759 67.4863 164.04 66.3816 163.66 64.6375C163.28 62.8935 164.382 61.1707 166.122 60.7895C167.231 60.5464 168.33 60.9094 169.081 61.6554Z" fill="#FFB6B6"/>
<path d="M207.059 74.7208C206.641 75.5746 205.994 76.3131 205.164 76.851C203.937 77.645 202.498 77.8627 201.165 77.5724C201.003 77.5383 200.454 77.3846 199.611 77.137C199.466 77.0943 199.313 77.0516 199.151 77.0047C198.193 76.7272 196.945 76.3601 195.519 75.946C194.105 75.5319 192.504 75.0666 190.848 74.5885L190.839 74.5928C190.337 74.4391 189.817 74.2897 189.302 74.1403H189.293C185.44 73.0432 181.407 71.9248 178.469 71.2076C178.333 71.1692 177.626 71.8479 177.494 71.8138C177.289 71.7625 177.251 70.9813 177.06 70.9344C176.647 70.8319 176.106 71.4765 175.765 71.3911C174.526 71.088 174.032 68.4456 174.032 68.4456L174.087 68.0017L174.709 62.6656L174.718 62.5717L178.222 61.4661L179.389 62.5973L181.007 61.9229L182.514 63.0541L185.593 63.3615L186.922 63.4981L187.011 63.5023L194.442 64.2494L196.63 64.4714C196.456 63.5835 196.319 62.704 196.221 61.8375C196.196 61.5942 196.17 61.3551 196.153 61.1161L196.149 61.1118C196.102 60.5995 196.072 60.0958 196.051 59.5878C196.336 59.114 196.664 58.6359 197.043 58.1535C199.241 55.3446 199.815 53.2273 203.631 53.2315C204.214 53.2315 204.836 53.1931 205.466 53.1632L206.45 61.8973L207.531 71.5021L207.565 71.8137C207.676 72.8383 207.493 73.8415 207.059 74.7208Z" fill="#3F3D56"/>
<path d="M188.645 58.8858C188.159 58.5358 187.537 58.4718 186.988 58.7151L170.441 66.0276C168.933 66.6935 167.23 66.8131 165.646 66.3648L165.403 66.2965C166.092 60.1592 164.334 53.5543 160.881 46.6257C160.434 46.566 159.987 46.6855 159.625 46.9672C159.199 47.3002 158.961 47.8039 158.978 48.3503L159.497 67.5857L159.672 73.9719C155.898 78.504 154.533 82.697 159.995 85.9289C160.012 86.5308 160.34 87.0687 160.868 87.359C161.396 87.6535 162.022 87.645 162.542 87.3376L162.878 87.137L167.422 93.5189C167.724 93.3994 168.039 93.3396 168.358 93.3396C168.797 93.3396 169.236 93.4506 169.627 93.6768L177.893 98.4452L183.522 101.694C184.024 101.984 184.633 101.997 185.149 101.728C185.664 101.455 185.996 100.947 186.047 100.366L186.205 98.4452L186.728 92.1273L187.589 81.7028L187.997 76.7296L188.061 75.9868L189.347 60.4013C189.398 59.7994 189.134 59.2316 188.645 58.8858Z" fill="#F2F2F2"/>
<path d="M189.922 61.0202C189.437 60.6702 188.815 60.6061 188.266 60.8495C182.28 65.4695 176.491 69.1729 171.718 68.162C170.211 68.8279 168.508 68.9475 166.923 68.4992L166.681 68.4309C167.37 62.2936 165.611 55.6887 162.159 48.7601C161.711 48.7004 161.264 48.8199 160.902 49.1016C160.477 49.4346 160.238 49.9383 160.255 50.4847L160.775 69.7201L160.949 76.1063C157.175 80.6384 155.811 84.8314 161.273 88.0633C161.29 88.6652 161.618 89.2031 162.146 89.4934C162.674 89.7879 163.3 89.7794 163.819 89.472L164.156 89.2714L168.699 95.6533C169.001 95.5338 169.317 95.474 169.636 95.474C170.075 95.474 170.513 95.585 170.905 95.8112L179.17 100.58L184.799 103.828C185.302 104.118 185.911 104.131 186.426 103.862C186.941 103.589 187.273 103.081 187.324 102.501L187.482 100.58L188.006 94.2617L188.866 83.8372L189.275 78.864L189.339 78.1212L190.625 62.5357C190.676 61.9338 190.412 61.366 189.922 61.0202Z" fill="#E6E6E6"/>
<path d="M186.854 69.678L174.155 72.7742L174.336 73.5216L187.036 70.4254L186.854 69.678Z" fill="white"/>
<path d="M186.854 75.4484L174.155 78.5446L174.336 79.292L187.036 76.1958L186.854 75.4484Z" fill="white"/>
<path d="M174.07 83.0028L174.054 83.7719L187.121 84.048L187.137 83.279L174.07 83.0028Z" fill="white"/>
<path d="M174.094 88.5316L174.049 89.2996L187.097 90.0599L187.141 89.292L174.094 88.5316Z" fill="white"/>
<path d="M173.436 94.033L173.315 94.7925L186.219 96.8689L186.341 96.1094L173.436 94.033Z" fill="white"/>
<path d="M134.385 100.58H232.789C233.636 100.58 234.322 102.528 234.322 104.932V114.585C234.322 116.988 233.636 118.936 232.789 118.936H148.863C148.016 118.936 147.33 116.988 147.33 114.585L132.853 104.932C132.853 102.528 133.539 100.58 134.385 100.58Z" fill="#F2F2F2"/>
<path d="M205.06 38.9329C204.992 38.8134 204.919 38.6982 204.843 38.5872C204.77 38.4719 204.689 38.3609 204.609 38.2542C204.57 38.1987 204.532 38.1475 204.489 38.1005C204.106 37.6096 203.68 37.2126 203.246 36.9735C203.216 36.9565 203.186 36.9394 203.157 36.9266C203.088 36.8882 203.02 36.8583 202.948 36.8327C202.816 36.7814 202.684 36.743 202.548 36.726C202.484 36.7174 202.42 36.7131 202.356 36.7131C202.309 36.7131 202.262 36.7174 202.215 36.7217C202.19 36.726 202.16 36.7302 202.13 36.7345C202.096 36.7387 202.058 36.7473 202.024 36.7558C201.985 36.7644 201.947 36.7772 201.913 36.79C201.879 36.8028 201.841 36.8156 201.807 36.8327C201.768 36.8497 201.73 36.8668 201.696 36.8882C201.658 36.9095 201.624 36.9309 201.589 36.9522C201.551 36.9778 201.517 37.0034 201.483 37.029C202.786 37.7675 204.064 38.553 205.307 39.3769C205.23 39.2232 205.149 39.0781 205.06 38.9329Z" fill="#3F3D56"/>
<path d="M205.06 38.9329C204.992 38.8134 204.919 38.6982 204.843 38.5872C204.77 38.4719 204.689 38.3609 204.609 38.2542C204.57 38.1987 204.532 38.1475 204.489 38.1005C204.106 37.6096 203.68 37.2126 203.246 36.9735C203.216 36.9565 203.186 36.9394 203.157 36.9266C203.088 36.8882 203.02 36.8583 202.948 36.8327C202.816 36.7814 202.684 36.743 202.548 36.726C202.484 36.7174 202.42 36.7131 202.356 36.7131C202.309 36.7131 202.262 36.7174 202.215 36.7217C202.19 36.726 202.16 36.7302 202.13 36.7345C202.096 36.7387 202.058 36.7473 202.024 36.7558C201.985 36.7644 201.947 36.7772 201.913 36.79C201.879 36.8028 201.841 36.8156 201.807 36.8327C201.768 36.8497 201.73 36.8668 201.696 36.8882C201.658 36.9095 201.624 36.9309 201.589 36.9522C201.551 36.9778 201.517 37.0034 201.483 37.029C202.786 37.7675 204.064 38.553 205.307 39.3769C205.23 39.2232 205.149 39.0781 205.06 38.9329Z" fill="#3F3D56"/>
<path d="M226.338 27.582H88.4534V28.4358H168.857C177.02 28.4358 184.833 29.9128 192.055 32.6193H192.06C193.052 32.9907 194.027 33.3834 194.994 33.8017C197.225 34.7579 199.388 35.838 201.483 37.029C202.786 37.7675 204.064 38.5529 205.307 39.3768C207.964 41.1313 210.485 43.0736 212.852 45.1867L212.857 45.191C212.963 45.2806 213.065 45.3703 213.168 45.4685C226.662 57.6304 235.148 75.2692 235.148 94.893V142.973C235.148 147.745 231.376 151.63 227.058 147.135C226.96 147.033 226.862 146.93 226.764 146.819H144.236V152.659H226.338C231.665 152.659 236 148.313 236 142.973V37.268C236 31.9277 231.665 27.582 226.338 27.582Z" fill="#3F3D56"/>
<path d="M205.06 38.9329C204.992 38.8134 204.919 38.6982 204.843 38.5872C204.77 38.4719 204.689 38.3609 204.609 38.2542C204.57 38.1987 204.532 38.1475 204.489 38.1005C204.106 37.6096 203.68 37.2126 203.246 36.9735C203.216 36.9565 203.186 36.9394 203.157 36.9266C203.088 36.8882 203.02 36.8583 202.948 36.8327C202.816 36.7814 202.684 36.743 202.548 36.726C202.484 36.7174 202.42 36.7131 202.356 36.7131C202.309 36.7131 202.262 36.7174 202.215 36.7217C202.19 36.726 202.16 36.7302 202.13 36.7345C202.096 36.7387 202.058 36.7473 202.024 36.7558C201.985 36.7644 201.947 36.7772 201.913 36.79C201.879 36.8028 201.841 36.8156 201.807 36.8327C201.768 36.8497 201.73 36.8668 201.696 36.8882C201.658 36.9095 201.624 36.9309 201.589 36.9522C201.551 36.9778 201.517 37.0034 201.483 37.029C202.786 37.7675 204.064 38.553 205.307 39.3769C205.23 39.2232 205.149 39.0781 205.06 38.9329Z" fill="#3F3D56"/>
<path d="M205.06 38.9329C204.992 38.8134 204.919 38.6982 204.843 38.5872C204.77 38.4719 204.689 38.3609 204.609 38.2542C204.57 38.1987 204.532 38.1475 204.489 38.1005C204.106 37.6096 203.68 37.2126 203.246 36.9735C203.216 36.9565 203.186 36.9394 203.157 36.9266C203.088 36.8882 203.02 36.8583 202.948 36.8327C202.816 36.7814 202.684 36.743 202.548 36.726C202.484 36.7174 202.42 36.7131 202.356 36.7131C202.309 36.7131 202.262 36.7174 202.215 36.7217C202.19 36.726 202.16 36.7302 202.13 36.7345C202.096 36.7387 202.058 36.7473 202.024 36.7558C201.985 36.7644 201.947 36.7772 201.913 36.79C201.879 36.8028 201.841 36.8156 201.807 36.8327C201.768 36.8497 201.73 36.8668 201.696 36.8882C201.658 36.9095 201.624 36.9309 201.589 36.9522C201.551 36.9778 201.517 37.0034 201.483 37.029C202.786 37.7675 204.064 38.553 205.307 39.3769C205.23 39.2232 205.149 39.0781 205.06 38.9329Z" fill="#3F3D56"/>
<path d="M205.06 38.9329C204.992 38.8134 204.919 38.6982 204.843 38.5872C204.77 38.4719 204.689 38.3609 204.609 38.2542C204.57 38.1987 204.532 38.1475 204.489 38.1005C204.106 37.6096 203.68 37.2126 203.246 36.9735C203.216 36.9565 203.186 36.9394 203.157 36.9266C203.088 36.8882 203.02 36.8583 202.948 36.8327C202.816 36.7814 202.684 36.743 202.548 36.726C202.484 36.7174 202.42 36.7131 202.356 36.7131C202.309 36.7131 202.262 36.7174 202.215 36.7217C202.19 36.726 202.16 36.7302 202.13 36.7345C202.096 36.7387 202.058 36.7473 202.024 36.7558C201.985 36.7644 201.947 36.7772 201.913 36.79C201.879 36.8028 201.841 36.8156 201.807 36.8327C201.768 36.8497 201.73 36.8668 201.696 36.8882C201.658 36.9095 201.624 36.9309 201.589 36.9522C201.551 36.9778 201.517 37.0034 201.483 37.029C202.786 37.7675 204.064 38.553 205.307 39.3769C205.23 39.2232 205.149 39.0781 205.06 38.9329Z" fill="#3F3D56"/>
<path d="M201.954 51.1657C202.203 51.1957 202.451 51.2182 202.698 51.2295C203.465 51.2717 204.224 51.2278 204.955 51.1036C207.176 50.7467 209.194 49.6919 210.751 48.1452C212.398 46.5132 213.524 44.3348 213.829 41.8549C214.542 36.0013 210.384 30.669 204.545 29.9537C198.79 29.2446 193.544 33.28 192.706 38.9993C192.693 39.0879 192.68 39.1727 192.67 39.2608C191.957 45.1182 196.111 50.4471 201.954 51.1657Z" fill="#FFB6B6"/>
<path d="M190.305 38.6076C191.818 39.3575 194.289 37 195.236 38.3564C195.389 38.0633 195.559 37.7798 195.727 37.5117C195.879 37.2718 196.096 36.7598 196.347 36.6721C196.029 37.4412 196.099 38.4829 196.429 39.3754C197.922 39.9343 199.875 38.6972 201.256 37.2339C203.424 34.9394 206.965 40.8231 206.127 43.868C207.193 42.5637 209.505 43.2993 210.288 44.7907C211.071 46.2783 209.748 47.4702 209.465 49.1296L211.601 48.8577C212.949 47.5419 212.855 45.3247 213.964 43.7997C215.818 41.2475 216.536 38.6434 215.143 36.0095C213.907 33.6805 213.791 30.6663 211.524 29.3236C212.514 28.838 208.991 29.5966 209.932 28.0141C210.877 26.4348 205.839 26.2431 205.51 27.0892C204.07 25.3618 202.618 24.2228 200.847 25.607C199.108 26.9688 199.288 28.4002 197.245 28.272C196.286 28.2124 196.392 30.0042 195.822 30.7853C195.255 31.5623 193.053 32.0611 192.946 31.978C192.364 31.5217 190.385 35.4057 190.385 35.4057C190.385 35.4057 188.78 37.8477 190.305 38.6076Z" fill="#2F2E41"/>
<path d="M163.577 1.49524H141.651C139.714 1.49524 138.138 3.07899 138.138 5.0213V27.0015C138.138 27.1979 138.155 27.3943 138.185 27.5821C138.236 27.8809 138.321 28.1669 138.44 28.4359C138.99 29.6653 140.225 30.5233 141.651 30.5233H163.577C165.003 30.5233 166.238 29.6653 166.787 28.4359C166.911 28.1669 166.996 27.8809 167.043 27.5821C167.077 27.3943 167.094 27.1979 167.094 27.0015V5.02131C167.094 3.07899 165.514 1.49524 163.577 1.49524ZM166.323 28.4359C165.808 29.4305 164.773 30.1093 163.577 30.1093H141.651C140.455 30.1093 139.42 29.4305 138.905 28.4359C138.764 28.1712 138.662 27.8852 138.606 27.5821C138.568 27.3943 138.551 27.1979 138.551 27.0015V5.02131C138.551 4.97435 138.551 4.93165 138.56 4.88897V4.8847C138.628 3.22839 139.986 1.90933 141.651 1.90933H152.705C156.772 1.90933 160.434 3.65527 162.989 6.43856C163.002 6.45563 163.014 6.46845 163.027 6.48124L163.049 6.50258C164.786 8.41504 165.999 10.8226 166.464 13.4821C166.481 13.5846 166.502 13.6828 166.515 13.7852C166.519 13.8066 166.519 13.8279 166.523 13.845C166.625 14.5237 166.677 15.2153 166.677 15.9196V27.0015C166.677 27.1979 166.659 27.3943 166.621 27.5821C166.566 27.8852 166.464 28.1712 166.323 28.4359Z" fill="#E6E6E6"/>
<path d="M166.704 16.0113C166.704 8.20996 159.733 1.38579 152.045 0.177705C142.314 -1.35147 133.367 7.2461 134.655 16.0573C135.783 23.7763 148.999 34.972 152.614 28.0635C156.75 20.1582 166.704 23.8127 166.704 16.0113Z" fill="#BBF46E"/>
<path d="M155.533 9.8241H148.456C148.277 9.8241 148.132 9.96925 148.132 10.1485C148.132 10.3278 148.277 10.473 148.456 10.473H155.533C155.712 10.473 155.856 10.3278 155.856 10.1485C155.856 9.96925 155.712 9.8241 155.533 9.8241Z" fill="white"/>
<path d="M155.533 16.7439H148.456C148.277 16.7439 148.132 16.889 148.132 17.0641C148.132 17.2433 148.277 17.3927 148.456 17.3927H155.533C155.712 17.3927 155.856 17.2433 155.856 17.0641C155.856 16.889 155.712 16.7439 155.533 16.7439Z" fill="white"/>
<path d="M159.331 13.2861H144.657C144.479 13.2861 144.334 13.4313 144.334 13.6106C144.334 13.7899 144.479 13.935 144.657 13.935H159.331C159.51 13.935 159.655 13.7899 159.655 13.6106C159.655 13.4313 159.51 13.2861 159.331 13.2861Z" fill="white"/>
<path d="M185.98 76.4888L194.65 80.6975L192.943 85.9981L183.934 81.2214C183.632 81.2947 183.314 81.3258 182.987 81.3066C181.209 81.202 179.853 79.6725 179.957 77.8904C180.061 76.1083 181.587 74.7484 183.365 74.8529C184.498 74.9196 185.459 75.5671 185.98 76.4888Z" fill="#FFB6B6"/>
<path d="M222.953 71.2697V71.2655C222.135 69.9805 220.811 69.0286 219.206 68.7255L217.996 68.495C215.016 74.0701 212.261 79.7647 211.745 86.6717L199.107 81.6985L198.536 81.4765L197.391 79.9782L195.649 80.1873L195.343 79.658V79.6537L194.832 78.7872L191.161 78.9024L191.127 78.9835L191.123 78.9878L189.334 83.3505L189.33 83.3548L189.087 83.9525L188.917 84.3665C188.917 84.3665 188.811 85.5447 189.07 86.5266V86.5351C189.198 87.026 189.42 87.4657 189.79 87.6749C190.097 87.8456 190.791 87.3718 191.161 87.581C191.332 87.6791 191.157 88.4475 191.34 88.55C191.459 88.6183 192.319 88.1573 192.443 88.2256C193.422 88.7762 194.529 89.4251 195.709 90.1252C196.309 90.4838 196.927 90.8509 197.557 91.2351C204.123 95.1923 211.928 100.17 212.576 100.511C212.623 100.537 212.669 100.558 212.716 100.58C213.891 101.164 215.28 101.31 216.621 100.9C216.902 100.814 217.17 100.708 217.422 100.58C217.886 100.353 218.307 100.059 218.673 99.713C219.517 98.9361 220.091 97.8859 220.292 96.7035L223.775 75.2654C224.009 73.8225 223.681 72.4138 222.953 71.2697Z" fill="#3F3D56"/>
<path d="M157.538 91.128C157.138 89.4973 155.942 88.2892 154.545 87.9221C153.987 87.7684 153.395 87.7513 152.808 87.8965C152.177 88.0501 151.611 88.3703 151.155 88.8271C149.993 88.2806 148.375 88.1995 146.578 88.1995H143.597C140.071 88.1995 137.21 91.1877 137.21 94.6028C136.29 97.6081 137.427 99.6699 139.518 100.579C140.655 101.074 142.073 101.228 143.597 101.006H146.578C147.613 101.202 148.6 101.032 149.482 100.579C151.036 99.7852 152.258 98.1203 152.799 96.0755C153.187 96.2121 153.591 96.289 154.004 96.289C154.277 96.289 154.553 96.2548 154.826 96.1908C155.831 95.9432 156.665 95.273 157.176 94.3082C157.679 93.3563 157.807 92.2293 157.538 91.128ZM154.294 93.4801C154 94.0393 153.57 94.4662 153.05 94.7266C153.033 94.8973 153.008 95.0681 152.982 95.2346C153.174 95.3114 153.084 95.3072 152.923 95.2687C152.641 95.2004 152.143 95.0169 152.497 94.9315C152.688 94.8845 152.876 94.8162 153.05 94.7266C153.144 93.8643 153.127 92.9593 152.965 92.0415C152.965 90.7352 152.573 89.8729 151.905 89.3009C152.224 89.0234 152.595 88.8271 153.008 88.7246C153.216 88.6734 153.425 88.6478 153.629 88.6478C153.889 88.6478 154.136 88.6649 154.366 88.7075C155.358 88.8826 156.057 89.4674 156.372 90.7608C156.589 91.6573 154.698 92.716 154.294 93.4801Z" fill="#F2F2F2"/>
<path d="M102.197 99.1604C102.197 95.7453 99.3354 92.7571 95.8096 92.7571H92.8288C91.1341 92.7571 89.5968 92.8297 88.4556 93.295C88.3833 93.3249 88.3194 93.3547 88.2513 93.3846C87.7914 92.9279 87.2293 92.6077 86.5991 92.454C85.4621 92.1766 84.3039 92.4967 83.4012 93.231C82.6773 93.8158 82.1152 94.6653 81.8682 95.6855C81.6 96.7869 81.7277 97.9139 82.2302 98.8658C82.4899 99.3567 82.8306 99.7666 83.2394 100.087C83.6311 100.398 84.0867 100.625 84.5807 100.748C84.8532 100.812 85.13 100.847 85.4025 100.847C85.8156 100.847 86.2201 100.77 86.6076 100.633C86.961 101.978 87.6125 103.156 88.4556 104.031C89.6267 105.248 91.1681 105.88 92.8288 105.564H95.8096C100.144 106.191 103.615 103.796 102.197 99.1604ZM86.4415 96.5991C86.2797 97.5169 86.2627 98.4219 86.3564 99.2842C86.531 99.3738 86.7183 99.4421 86.9099 99.4891C87.4677 99.6257 85.905 99.9971 86.4245 99.7922C86.399 99.6257 86.3734 99.4549 86.3564 99.2842C85.9987 99.1049 85.6878 98.8487 85.4323 98.5243C85.3131 98.3749 85.2066 98.2127 85.113 98.0377C84.7084 97.2735 82.8178 96.2149 83.035 95.3184C83.2521 94.4347 83.6481 93.8798 84.1932 93.5639C84.1932 93.5596 84.1974 93.5596 84.1974 93.5596C84.6318 93.3078 85.1598 93.2053 85.773 93.2053C85.9816 93.2053 86.1903 93.231 86.399 93.2822C86.812 93.3846 87.1825 93.581 87.5018 93.8585C86.8333 94.4305 86.4415 95.2928 86.4415 96.5991Z" fill="#F2F2F2"/>
<path d="M8.93532 138.292H107.34C108.186 138.292 108.872 140.24 108.872 142.643L96.0976 152.297C96.0976 154.7 95.4116 156.648 94.5653 156.648H8.93532C8.08908 156.648 7.40308 154.7 7.40308 152.297V142.643C7.40308 140.24 8.08908 138.292 8.93532 138.292Z" fill="#F2F2F2"/>
<path d="M49.6123 95.088L51.3461 106.65L44.8961 108.564L43.4969 96.275C43.2169 96.0221 42.9685 95.7249 42.7641 95.3843C41.6528 93.5323 42.2495 91.1278 44.097 90.0137C45.9444 88.8996 48.3429 89.4978 49.4542 91.3499C50.163 92.531 50.1743 93.9355 49.6123 95.088Z" fill="#FFB6B6"/>
<path d="M53.189 111.475C53.6489 116.696 50.5532 114.412 48.1175 119.509C47.1935 121.443 44.4512 121.157 43.4335 122.924C41.8835 125.613 43.31 137.69 40.5592 139.175C37.7956 140.669 36.4969 136.349 34.3124 134.125C32.1748 131.948 29.671 132.802 27.8442 130.373C26.0047 127.935 23.9224 125.763 22.0829 123.338C22.0445 123.291 22.0105 123.24 21.9764 123.193C21.1333 116.542 18.3867 108.709 19.5365 105.174C21.0566 104.619 22.696 104.248 23.9778 104.26C26.3368 104.29 25.3404 105.58 27.3673 106.596C29.0706 107.449 31.1741 111.915 32.8178 112.909C33.9888 113.614 36.8801 119.21 38.3918 118.728C40.8658 117.938 43.3015 106.519 42.7224 104.427C42.2327 102.681 39.7885 100.495 39.7203 98.7366C39.7161 98.6726 39.7161 98.6043 39.7203 98.5403C42.1773 99.4239 46.7421 97.1699 49.2587 97.9853C51.0557 98.5701 53.1762 100.769 53.2997 102.643C53.4275 104.564 53.0187 109.55 53.189 111.475Z" fill="#BBF46E"/>
<path d="M82.1492 91.7948C81.7021 91.2783 81.0336 91.0392 80.3608 91.1588L60.607 94.6976C58.8228 95.0221 56.962 94.7062 55.3822 93.814L52.4525 92.1619L46.968 89.067L45.9034 88.4694L41.4408 85.9508L40.0399 85.161C39.5033 84.858 38.8689 84.8281 38.3068 85.0842C37.7447 85.3361 37.3487 85.8313 37.221 86.4332L35.837 92.9175L35.7348 93.3828L34.9556 97.0412L33.0053 106.155L32.6987 107.602L32.5625 108.23L31.566 112.904L31.3787 113.767L28.7344 126.15L28.5044 127.222C28.3767 127.824 28.53 128.43 28.9302 128.882C28.9728 128.938 29.0239 128.989 29.0793 129.04C29.586 129.51 30.2801 129.668 30.9358 129.467L31.4894 129.297L35.6582 128.029L45.2093 125.126L47.2533 124.503L49.7656 123.739C50.0296 123.657 50.2979 123.619 50.5662 123.619C51.2688 123.619 51.9586 123.884 52.4781 124.383L64.8269 136.157L65.3719 136.677C65.8488 137.134 66.5174 137.309 67.1561 137.147C67.7054 137.01 68.1525 136.652 68.3995 136.157C68.4463 136.071 68.4846 135.982 68.5145 135.888L71.9679 125.472L72.5597 123.687L74.4845 117.882L74.6378 117.421C83.0838 122.829 81.7147 105.755 82.5197 93.6603C82.7369 93.0114 82.5963 92.3114 82.1492 91.7948Z" fill="#F2F2F2"/>
<path d="M79.5943 93.9292C79.1472 93.4127 78.4787 93.1736 77.8059 93.2932L58.0521 96.832C56.2679 97.1565 54.407 96.8406 52.8273 95.9484L49.8976 94.2963L44.4131 91.2014L43.3485 90.6038L38.8859 88.0852L37.485 87.2954C36.9484 86.9924 36.3139 86.9625 35.7519 87.2186C35.1898 87.4705 34.7938 87.9657 34.666 88.5676L33.2821 95.0519L33.1799 95.5172L32.4007 99.1756L30.4504 108.29L30.1438 109.737L30.0075 110.364L29.0111 115.039L28.8238 115.901L26.1794 128.285L25.9495 129.356C25.8217 129.958 25.975 130.564 26.3753 131.017C26.4179 131.072 26.469 131.124 26.5243 131.175C27.0311 131.644 27.7252 131.802 28.3809 131.602L28.9345 131.431L33.1033 130.163L42.6544 127.26L44.6983 126.637L47.2107 125.873C47.4747 125.792 47.743 125.753 48.0112 125.753C48.7138 125.753 49.4037 126.018 49.9232 126.518L62.2719 138.291L62.817 138.812C63.2939 139.269 63.9624 139.444 64.6012 139.281C65.1505 139.145 65.5976 138.786 65.8445 138.291C65.8914 138.206 65.9297 138.116 65.9595 138.022L69.4129 127.606L70.0048 125.822L71.9295 120.016L72.0828 119.555C80.5288 124.963 79.1598 107.889 79.9648 95.7947C80.1819 95.1458 80.0414 94.4458 79.5943 93.9292Z" fill="#E6E6E6"/>
<path d="M23.843 131.338L24.2475 148.502L48.5139 147.832L43.6101 128.835L23.843 131.338Z" fill="#FFB6B6"/>
<path d="M52.5971 190.371C52.8909 188.98 51.9455 190.107 51.3068 189.518L51.2557 189.466C50.5616 188.694 49.6887 188.348 49.7015 187.388C49.7142 186.427 48.045 187.285 47.1082 186.346C46.9081 186.145 46.3375 185.757 45.5582 185.27C43.1353 183.759 38.7196 181.292 37.3953 180.553C37.1483 180.417 37.0078 180.34 37.0078 180.34C37.0078 180.34 37.0035 180.412 36.9907 180.553C36.9184 181.445 36.6203 185.061 36.2583 189.518C36.237 189.799 36.2157 190.085 36.1902 190.371H20.503C20.52 190.081 20.5285 189.795 20.5328 189.518C20.5584 188.186 20.4476 186.944 20.141 185.906C19.5875 184.041 19.0935 182.265 18.706 180.553C17.288 174.316 17.3051 168.912 21.2482 163.025C21.9763 161.941 22.1168 158.488 22.1168 158.488C22.1168 158.488 23.4582 159.819 23.8031 160.152C23.7179 160.063 23.5476 159.892 23.2666 159.61C21.674 158.014 21.7251 157.531 22.5427 156.648C22.6875 156.494 22.8535 156.327 23.0409 156.14C24.2885 154.889 23.0409 156.14 22.4149 155.405C21.7932 154.667 23.3517 152.695 23.3517 152.695L22.7598 149.724L22.4149 147.999L24.2247 147.683L29.0705 146.834L47.3126 143.641L47.6575 144.524L50.749 152.409C51.5112 152.848 52.3075 154.577 53.0229 156.648C54.3599 160.511 55.4075 165.552 55.4075 165.552L75.5658 189.518L75.7617 189.752C75.932 189.953 76.0896 190.162 76.2386 190.371H52.5971Z" fill="#2F2E41"/>
<path d="M25.9748 182.688H22.994V190.372H25.9748V182.688Z" fill="#E6E6E6"/>
<path d="M7.87748 180.553H41.0914C43.5608 180.553 45.5626 182.56 45.5626 185.035C45.5626 187.511 43.5608 189.518 41.0914 189.518H7.87748C5.40816 189.518 3.40637 187.511 3.40637 185.035C3.40637 182.56 5.40816 180.553 7.87748 180.553Z" fill="#F2F2F2"/>
<path d="M5.3226 189.518C3.32362 189.518 1.70312 187.893 1.70312 185.889V142.774C1.70312 140.77 3.32362 139.146 5.32259 139.146C7.32157 139.146 8.94207 140.77 8.94207 142.774C19.9352 151.208 15.4671 167.993 8.94207 185.889C8.94207 187.893 7.32157 189.518 5.3226 189.518Z" fill="#F2F2F2"/>
<path d="M48.9691 142.134C48.2673 147.293 43.3526 142.748 38.4088 141.89C33.81 141.096 28.3424 149.139 23.4199 149.818C20.2391 150.257 22.7471 147.611 23.8458 136.157C23.9863 134.685 22.1936 124.922 21.9764 123.193C21.1333 116.542 18.3867 108.709 19.5365 105.174C19.7323 104.559 20.0474 104.077 20.5116 103.753C22.696 102.22 23.6712 100.986 25.1402 98.7836C26.3837 96.9139 27.2864 95.471 29.6029 95.3216C31.7873 95.1807 34.2613 95.6588 36.3691 96.1199C38.6728 96.6278 36.0583 96.4486 36.6204 97.7378C36.8929 98.3696 37.3613 100.7 37.8978 101.58C39.5264 101.111 41.2783 101.636 42.3839 102.923C43.67 104.421 44.8287 105.796 45.6265 107.932C46.8273 111.125 43.7997 116.807 45.1368 119.936C46.3418 122.762 43.3951 128.785 44.7109 131.035C46.3801 133.899 50.2466 132.742 48.9691 142.134Z" fill="#BBF46E"/>
<path d="M58.8291 100.274L58.7214 101.121L73.108 102.959L73.2156 102.112L58.8291 100.274Z" fill="white"/>
<path d="M58.0442 104.469L57.9365 105.316L72.3231 107.154L72.4307 106.308L58.0442 104.469Z" fill="white"/>
<path d="M57.6183 107.885L57.5106 108.731L71.8972 110.569L72.0048 109.723L57.6183 107.885Z" fill="white"/>
<path d="M36.6856 95.7355C41.5811 95.7355 45.5496 91.757 45.5496 86.8493C45.5496 81.9416 41.5811 77.9631 36.6856 77.9631C31.7901 77.9631 27.8215 81.9416 27.8215 86.8493C27.8215 91.757 31.7901 95.7355 36.6856 95.7355Z" fill="#FFB6B6"/>
<path d="M79.2183 95.7555L69.606 100.13L71.3328 105.984L81.3314 100.996C81.6609 101.085 82.0085 101.127 82.3671 101.115C84.3174 101.049 85.845 99.4103 85.779 97.455C85.713 95.4998 84.0784 93.9684 82.1281 94.0345C80.8842 94.0767 79.8146 94.7599 79.2183 95.7555Z" fill="#FFB6B6"/>
<path d="M70.9688 98.9882L67.2637 100.826L60.6427 102.129L51.6669 105.823L50.3056 106.381L44.0238 105.185L39.6742 104.352L38.2407 104.079L33.023 103.081L31.9855 103.016C31.7015 102.935 31.3949 102.858 31.0584 102.789C30.0562 102.577 28.8558 102.416 27.6255 102.354C27.2551 102.336 26.8797 102.326 26.5072 102.329C23.3239 102.337 20.2706 103.09 20.1956 105.367C20.1371 107.229 20.5073 109.008 21.2202 110.612C21.3287 110.856 21.4423 111.091 21.5653 111.326C23.0739 114.204 25.7224 116.414 28.9442 117.313C29.6468 117.508 30.3744 117.638 31.1235 117.704L31.2789 117.689L31.8613 117.638L32.8173 117.553L34.5718 117.394L48.3457 116.154L49.9921 116.007L51.5188 115.867L51.5538 115.851C53.503 115.013 58.884 112.699 64.3156 110.304C69.2937 108.107 71.3941 107.836 72.8757 107.254C73.1699 107.139 73.4384 107.015 73.7023 106.858C73.9385 106.714 78.26 103.758 78.2836 103.698C78.3618 103.516 78.2755 103.128 78.0795 102.618C77.5232 101.148 76.0954 98.7057 75.3748 97.5062L75.0463 96.967L70.9688 98.9882Z" fill="#BBF46E"/>
<path d="M9.66186 65.2935C4.32576 65.2935 0 69.63 0 74.9794V180.684C0 182.725 0.634468 184.624 1.71607 186.187C2.70395 187.621 4.07084 188.774 5.66767 189.499H5.68045C6.89829 190.059 8.23961 190.37 9.66186 190.37H82.4473V184.531H10.0877C8.73357 189.517 7.8351 189.371 6.99622 189.102C5.99129 188.787 5.063 188.291 4.25394 187.651C4.24541 187.651 4.24541 187.647 4.24541 187.643C3.16384 186.806 2.29517 185.726 1.70328 184.475C1.15822 183.327 0.85164 182.042 0.85164 180.684V110.828C0.85164 86.1516 20.8062 66.1472 45.4213 66.1472H129.287V65.2935L9.66186 65.2935Z" fill="#3F3D56"/>
<path d="M46.7934 82.0875C46.7891 83.001 46.7849 84.7982 45.9971 85.2507L45.7927 85.1525C45.6564 85.0671 45.4861 84.9348 45.303 84.7854C44.7409 84.3243 44.0255 83.6883 43.5358 83.6029C43.5103 82.8345 43.5316 82.0661 43.6082 81.302C43.6295 81.1184 43.6508 80.9349 43.6763 80.7513C43.604 80.8751 43.5358 80.9989 43.4677 81.127C43.0632 81.8868 42.731 82.6894 42.4883 83.5133C41.6792 83.5218 40.5977 83.4108 40.1591 84.0896C39.5246 85.0757 40.4316 87.1759 38.8859 88.0852C38.558 88.2773 38.1194 88.4182 37.536 88.4822C38.1492 88.5804 38.9285 88.8792 39.3202 89.6646C40.1293 91.2868 40.8191 93.1651 40.4529 94.894C40.3976 95.1501 40.3209 95.402 40.2187 95.6496C39.597 97.1522 38.1577 98.1169 37.1017 99.3549C37.0804 99.3763 37.0634 99.3976 37.0463 99.419C36.233 100.392 35.9605 101.191 36.0457 101.946C36.1989 103.333 37.5488 104.571 38.9412 106.433C39.4565 107.124 37.9193 110.714 38.3579 111.457C38.805 112.2 39.0434 113.139 38.69 113.933C38.311 114.778 37.4594 115.154 36.5141 115.299C33.8144 113.442 31.4936 111.077 30.4504 108.29C29.5476 105.882 29.5945 103.167 31.17 100.187C29.6583 102.808 29.0878 105.959 29.5817 108.947C29.5945 109.054 29.6115 109.156 29.6328 109.259C29.7094 109.66 29.8372 110.023 30.0075 110.364C30.7697 111.888 32.3538 112.896 33.5205 114.3C33.0308 114.795 32.2303 115.551 31.4511 116.247C30.7868 116.844 30.131 117.391 29.7009 117.694C29.4114 117.425 29.109 116.763 28.8237 115.901C28.7088 115.555 28.5938 115.175 28.4873 114.778C27.8188 112.375 27.2738 109.276 27.1332 108.324C26.7458 109.054 26.635 111.116 26.6904 113.237C26.6989 113.549 26.7117 113.86 26.7244 114.168C26.8479 116.84 23.5478 118.155 21.8105 116.127C21.4528 115.705 21.0866 115.231 20.7119 114.697C20.665 112.657 20.9546 110.608 21.5933 108.674C21.6104 108.618 21.6189 108.593 21.6189 108.584C21.5337 108.708 20.6395 110.936 19.9369 112.652C19.5749 113.532 19.2641 114.275 19.1321 114.535C19.2641 113.745 19.5153 112.772 19.7793 111.82C20.3797 109.681 21.0568 107.671 20.6352 108.226C20.2051 108.793 19.8177 109.399 19.4855 110.031C18.8212 111.274 18.3571 112.627 18.1229 114.018C18.1016 114.142 18.0803 114.266 18.0675 114.394C17.68 114.296 17.3053 114.159 16.9476 113.98C15.8192 113.395 15.2103 112.17 15.1464 110.894C15.0442 108.896 15.9257 107.086 17.7397 107.368C18.4295 107.474 18.719 107.064 18.7574 106.394C18.851 105.007 17.8929 102.497 17.3351 101.148C17.0967 100.572 16.8497 99.9739 16.6368 99.372C17.8163 97.8651 18.4423 95.9185 18.306 94.0061C17.9015 95.4319 17.1818 96.7637 16.2152 97.8864C16.0066 96.879 15.9895 95.8715 16.36 94.911C17.5991 91.718 20.2435 93.0712 22.1128 90.2025C24.2973 86.8515 23.6543 85.1013 24.9232 81.302C25.4683 79.6628 26.7585 78.2882 28.3596 77.6394C29.9607 76.9948 32.2431 72.8924 38.294 77.396C38.3919 77.3064 38.4899 77.221 38.5921 77.1441C40.3081 75.8464 42.4202 76.6746 44.6813 76.9691C47.0744 77.2808 46.2824 76.824 47.5726 78.8688C48.0581 79.6414 46.8019 81.1739 46.7934 82.0875Z" fill="#2F2E41"/>
<path d="M98.637 52.3035C98.637 52.3006 98.6356 52.2992 98.6327 52.2992C98.1601 51.7784 97.5298 51.4027 96.8187 51.2448H96.8145C96.5675 51.1893 96.3163 51.1594 96.0522 51.1594H74.1268C72.1893 51.1594 70.6095 52.7432 70.6095 54.6855V76.6657C70.6095 78.608 72.1893 80.1875 74.1268 80.1875H96.0522C97.9897 80.1875 99.5653 78.608 99.5653 76.6657V54.6855C99.5653 53.7677 99.2161 52.931 98.637 52.3035ZM99.1522 76.6657C99.1522 78.3818 97.7641 79.7734 96.0522 79.7734H74.1268C72.415 79.7734 71.0268 78.3818 71.0268 76.6657V65.5838C71.0268 65.4856 71.0268 65.3917 71.0311 65.2935C71.0438 64.6703 71.0949 64.0556 71.1886 63.4494C71.2014 63.3469 71.2227 63.2488 71.2397 63.1463C71.7039 60.4868 72.9174 58.0792 74.6548 56.1668L74.6761 56.1454C77.231 53.3365 80.9101 51.5735 84.9979 51.5735H96.0522C97.7641 51.5735 99.1522 52.9694 99.1522 54.6855V76.6657Z" fill="#E6E6E6"/>
<path d="M70.9989 65.6755C70.9989 57.8741 77.9696 51.0499 85.6576 49.8419C95.389 48.3127 104.336 53.4952 103.048 62.3064C101.92 70.0254 88.7043 84.6362 85.0893 77.7276C80.9528 69.8223 70.9989 73.4768 70.9989 65.6755Z" fill="#BBF46E"/>
<path d="M89.2477 59.4883H82.1706C81.9917 59.4883 81.8469 59.6334 81.8469 59.8127C81.8469 59.992 81.9917 60.1372 82.1706 60.1372H89.2477C89.4265 60.1372 89.5713 59.992 89.5713 59.8127C89.5713 59.6334 89.4265 59.4883 89.2477 59.4883Z" fill="white"/>
<path d="M89.2477 66.4081H82.1706C81.9917 66.4081 81.8469 66.5532 81.8469 66.7282C81.8469 66.9075 81.9917 67.0569 82.1706 67.0569H89.2477C89.4265 67.0569 89.5713 66.9075 89.5713 66.7282C89.5713 66.5532 89.4265 66.4081 89.2477 66.4081Z" fill="white"/>
<path d="M93.046 62.9503H78.3722C78.1933 62.9503 78.0486 63.0955 78.0486 63.2748C78.0486 63.4541 78.1933 63.5992 78.3722 63.5992H93.046C93.2248 63.5992 93.3696 63.4541 93.3696 63.2748C93.3696 63.0955 93.2248 62.9503 93.046 62.9503Z" fill="white"/>
<path d="M21.6663 18.4041C21.1966 18.4041 20.8147 18.787 20.8147 19.2578V32.4912C20.8147 32.9621 21.1966 33.345 21.6663 33.345C22.136 33.345 22.518 32.9621 22.518 32.4912V19.2578C22.518 18.787 22.136 18.4041 21.6663 18.4041Z" fill="#3F3D56"/>
<path d="M30.0129 31.1556C32.944 31.1556 35.32 28.8237 35.32 25.9473C35.32 23.0708 32.944 20.739 30.0129 20.739C27.0819 20.739 24.7058 23.0708 24.7058 25.9473C24.7058 28.8237 27.0819 31.1556 30.0129 31.1556Z" fill="#BBF46E"/>
<path d="M72.5578 24.1655H43.9917C43.0117 24.1655 42.2144 23.3661 42.2144 22.3837C42.2144 21.4013 43.0117 20.6019 43.9917 20.6019H72.5578C73.5378 20.6019 74.3352 21.4013 74.3352 22.3837C74.3352 23.3661 73.5378 24.1655 72.5578 24.1655Z" fill="#F2F2F2"/>
<path d="M94.8509 30.1961H43.9917C43.0117 30.1961 42.2144 29.3968 42.2144 28.4143C42.2144 27.4319 43.0117 26.6326 43.9917 26.6326H94.8509C95.8309 26.6326 96.6283 27.4319 96.6283 28.4143C96.6283 29.3968 95.8309 30.1961 94.8509 30.1961Z" fill="#F2F2F2"/>
<path d="M92.2324 179.059C91.7627 179.059 91.3807 179.442 91.3807 179.913V193.146C91.3807 193.617 91.7627 194 92.2324 194C92.7021 194 93.084 193.617 93.084 193.146V179.913C93.084 179.442 92.7021 179.059 92.2324 179.059Z" fill="#3F3D56"/>
<path d="M100.579 191.811C103.51 191.811 105.886 189.479 105.886 186.602C105.886 183.726 103.51 181.394 100.579 181.394C97.6479 181.394 95.2719 183.726 95.2719 186.602C95.2719 189.479 97.6479 191.811 100.579 191.811Z" fill="#BBF46E"/>
<path d="M143.124 184.821H114.558C113.578 184.821 112.78 184.021 112.78 183.039C112.78 182.056 113.578 181.257 114.558 181.257H143.124C144.104 181.257 144.901 182.056 144.901 183.039C144.901 184.021 144.104 184.821 143.124 184.821Z" fill="#F2F2F2"/>
<path d="M165.417 190.851H114.558C113.578 190.851 112.78 190.052 112.78 189.069C112.78 188.087 113.578 187.288 114.558 187.288H165.417C166.397 187.288 167.194 188.087 167.194 189.069C167.194 190.052 166.397 190.851 165.417 190.851Z" fill="#F2F2F2"/>
<path d="M43.0035 73.445C43.9979 73.445 44.804 72.6188 44.804 71.5997C44.804 70.5807 43.9979 69.7545 43.0035 69.7545C42.0091 69.7545 41.203 70.5807 41.203 71.5997C41.203 72.6188 42.0091 73.445 43.0035 73.445Z" fill="#3F3D56"/>
<path d="M49.2233 73.445C50.2177 73.445 51.0238 72.6188 51.0238 71.5997C51.0238 70.5807 50.2177 69.7545 49.2233 69.7545C48.229 69.7545 47.4229 70.5807 47.4229 71.5997C47.4229 72.6188 48.229 73.445 49.2233 73.445Z" fill="#3F3D56"/>
<path d="M55.4433 73.445C56.4377 73.445 57.2438 72.6188 57.2438 71.5997C57.2438 70.5807 56.4377 69.7545 55.4433 69.7545C54.4489 69.7545 53.6428 70.5807 53.6428 71.5997C53.6428 72.6188 54.4489 73.445 55.4433 73.445Z" fill="#3F3D56"/>
<path d="M167.935 37.0354C168.929 37.0354 169.736 36.2093 169.736 35.1902C169.736 34.1711 168.929 33.345 167.935 33.345C166.941 33.345 166.135 34.1711 166.135 35.1902C166.135 36.2093 166.941 37.0354 167.935 37.0354Z" fill="#3F3D56"/>
<path d="M174.155 37.0354C175.149 37.0354 175.955 36.2093 175.955 35.1902C175.955 34.1711 175.149 33.345 174.155 33.345C173.16 33.345 172.354 34.1711 172.354 35.1902C172.354 36.2093 173.16 37.0354 174.155 37.0354Z" fill="#3F3D56"/>
<path d="M180.375 37.0354C181.369 37.0354 182.175 36.2093 182.175 35.1902C182.175 34.1711 181.369 33.345 180.375 33.345C179.38 33.345 178.574 34.1711 178.574 35.1902C178.574 36.2093 179.38 37.0354 180.375 37.0354Z" fill="#3F3D56"/>
<path d="M113.459 109.945C113.388 110.189 113.646 110.394 113.867 110.269C115.407 109.397 117.289 108.546 118.968 108.086C119.237 108.013 119.246 107.636 118.982 107.547L116.757 106.797L125.254 96.0714L124.675 95.6107L116.178 106.337L114.946 104.333C114.799 104.096 114.435 104.19 114.424 104.469C114.358 106.212 113.958 108.243 113.459 109.945Z" fill="#3F3D56"/>
<path d="M125.526 131.055C125.758 131.157 125.994 130.927 125.899 130.692C125.233 129.049 124.632 127.068 124.393 125.34C124.354 125.064 123.982 125.007 123.86 125.258L122.834 127.374L113.31 117.553L112.78 118.07L122.305 127.891L120.165 128.86C119.911 128.974 119.957 129.349 120.232 129.395C121.948 129.684 123.907 130.342 125.526 131.055Z" fill="#3F3D56"/>
</g>
<defs>
<clipPath id="clip0_152_243">
<rect width="236" height="194" fill="white"/>
</clipPath>
</defs>
</svg>
