<svg width="30" height="16" viewBox="0 0 30 16" fill="none" xmlns="http://www.w3.org/2000/svg">
<path d="M20.1021 15.1429H28.2653V6.97961" fill="#252525"/>
<path d="M20.1021 15.1429H28.2653V6.97961" stroke="#C61C1C" stroke-width="1.71429" stroke-linecap="round" stroke-linejoin="round"/>
<path d="M28.265 15.1428L16.7344 3.61222C16.5436 3.42525 16.2872 3.32053 16.0201 3.32053C15.753 3.32053 15.4965 3.42525 15.3058 3.61222L10.6119 8.3061C10.4212 8.49306 10.1647 8.59779 9.89764 8.59779C9.63055 8.59779 9.3741 8.49306 9.18335 8.3061L1.73438 0.857117" fill="#252525"/>
<path d="M28.265 15.1428L16.7344 3.61222C16.5436 3.42525 16.2872 3.32053 16.0201 3.32053C15.753 3.32053 15.4965 3.42525 15.3058 3.61222L10.6119 8.3061C10.4212 8.49306 10.1647 8.59779 9.89764 8.59779C9.63055 8.59779 9.3741 8.49306 9.18335 8.3061L1.73438 0.857117" stroke="#C61C1C" stroke-width="1.71429" stroke-linecap="round" stroke-linejoin="round"/>
</svg>
