<svg width="29" height="17" viewBox="0 0 29 17" fill="none" xmlns="http://www.w3.org/2000/svg">
<path d="M19.2725 1.66669H27.4357V9.82995" fill="#252525"/>
<path d="M19.2725 1.66669H27.4357V9.82995" stroke="#3DC61C" stroke-width="1.71429" stroke-linecap="round" stroke-linejoin="round"/>
<path d="M27.4354 1.66669L15.9048 13.1973C15.714 13.3843 15.4576 13.489 15.1905 13.489C14.9234 13.489 14.667 13.3843 14.4762 13.1973L9.78234 8.50342C9.59159 8.31645 9.33514 8.21173 9.06805 8.21173C8.80096 8.21173 8.54451 8.31645 8.35377 8.50342L0.904785 15.9524" fill="#252525"/>
<path d="M27.4354 1.66669L15.9048 13.1973C15.714 13.3843 15.4576 13.489 15.1905 13.489C14.9234 13.489 14.667 13.3843 14.4762 13.1973L9.78234 8.50342C9.59159 8.31645 9.33515 8.21173 9.06805 8.21173C8.80096 8.21173 8.54451 8.31645 8.35376 8.50342L0.904785 15.9524" stroke="#3DC61C" stroke-width="1.71429" stroke-linecap="round" stroke-linejoin="round"/>
</svg>
